<svg width="20" height="20" viewBox="0 0 20 20" fill="none" xmlns="http://www.w3.org/2000/svg">
<mask id="path-1-inside-1_19819_22870" fill="white">
<rect y="12.6523" width="7.34697" height="7.34697" rx="1"/>
</mask>
<rect y="12.6523" width="7.34697" height="7.34697" rx="1" stroke="#F4F8FB" stroke-width="3" mask="url(#path-1-inside-1_19819_22870)"/>
<mask id="path-2-inside-2_19819_22870" fill="white">
<rect y="2.04102" width="7.34697" height="7.34697" rx="1"/>
</mask>
<rect y="2.04102" width="7.34697" height="7.34697" rx="1" stroke="#F4F8FB" stroke-width="3" mask="url(#path-2-inside-2_19819_22870)"/>
<mask id="path-3-inside-3_19819_22870" fill="white">
<rect x="10.6133" y="12.6523" width="7.34697" height="7.34697" rx="1"/>
</mask>
<rect x="10.6133" y="12.6523" width="7.34697" height="7.34697" rx="1" stroke="#F4F8FB" stroke-width="3" mask="url(#path-3-inside-3_19819_22870)"/>
<path d="M10.0773 5.4033L14.2426 1.238C14.3402 1.14037 14.4985 1.14037 14.5961 1.238L18.7614 5.4033C18.8591 5.50093 18.8591 5.65922 18.7614 5.75685L14.5961 9.92216C14.4985 10.0198 14.3402 10.0198 14.2426 9.92216L10.0773 5.75685L10.0448 5.71749C9.98097 5.62048 9.99194 5.48864 10.0773 5.4033Z" stroke="#F4F8FB" stroke-width="1.5"/>
</svg>
