<svg width="24" height="24" viewBox="0 0 24 24" fill="none" xmlns="http://www.w3.org/2000/svg">
<path d="M17.209 3.75C17.789 3.75 18.3645 3.84901 18.9092 4.04199L19.1406 4.13086C19.6761 4.35056 20.1688 4.65887 20.5967 5.04297L20.7754 5.21289H20.7764C21.1856 5.61796 21.52 6.08941 21.7666 6.60547L21.8672 6.8291C22.1199 7.43305 22.25 8.08011 22.25 8.7334C22.25 9.38663 22.1198 10.0338 21.8672 10.6377C21.646 11.1662 21.335 11.6536 20.9473 12.0771L20.7764 12.2549L19.6602 13.3594L11.999 20.9434L4.33887 13.3594L3.22363 12.2549C2.27926 11.3198 1.75 10.0526 1.75 8.7334L1.75586 8.4873C1.81328 7.33944 2.27098 6.24525 3.05176 5.3916L3.22363 5.21289C4.10931 4.33591 5.29215 3.81804 6.54004 3.75684L6.79004 3.75098C8.04545 3.75099 9.2516 4.21335 10.1758 5.04199L10.3564 5.21289L11.4717 6.31738C11.7639 6.60677 12.2351 6.60673 12.5273 6.31738L13.6426 5.21289H13.6436C14.0527 4.8076 14.529 4.47541 15.0518 4.23047L15.2783 4.13086C15.8902 3.87982 16.5462 3.75006 17.209 3.75Z" stroke="#F4F8FB" stroke-width="1.5" stroke-linecap="round" stroke-linejoin="round"/>
</svg>
