<svg width="31" height="31" viewBox="0 0 31 31" fill="none" xmlns="http://www.w3.org/2000/svg">
<path d="M18.5832 7.51957C19.7912 7.7548 20.9014 8.34445 21.7716 9.21306C22.6419 10.0817 23.2327 11.1897 23.4684 12.3954M18.5832 2.58203C21.0929 2.86031 23.4332 3.98204 25.2199 5.76305C27.0066 7.54406 28.1334 9.87849 28.4154 12.383M27.1786 22.2334V25.9366C27.18 26.2804 27.1095 26.6206 26.9715 26.9356C26.8335 27.2506 26.6311 27.5334 26.3773 27.7658C26.1235 27.9982 25.8239 28.1751 25.4976 28.2852C25.1713 28.3954 24.8255 28.4363 24.4825 28.4053C20.6768 27.9926 17.0212 26.6947 13.8094 24.6158C10.8212 22.7206 8.28771 20.192 6.38889 17.2095C4.29875 13.9892 2.99802 10.3228 2.59207 6.50737C2.56116 6.16602 2.60181 5.82199 2.71142 5.49718C2.82102 5.17237 2.99719 4.8739 3.22871 4.62077C3.46022 4.36763 3.742 4.16539 4.05612 4.0269C4.37024 3.88842 4.7098 3.81674 5.0532 3.81642H8.76344C9.36364 3.81052 9.94552 4.02265 10.4006 4.41328C10.8557 4.80391 11.1529 5.34637 11.2369 5.93956C11.3935 7.12465 11.684 8.28825 12.1027 9.40818C12.2691 9.84999 12.3051 10.3302 12.2064 10.7918C12.1078 11.2534 11.8786 11.6771 11.5461 12.0127L9.97546 13.5804C11.736 16.6707 14.2997 19.2295 17.3959 20.9867L18.9666 19.419C19.3029 19.0871 19.7274 18.8584 20.1899 18.76C20.6524 18.6615 21.1335 18.6975 21.5761 18.8636C22.6982 19.2815 23.8641 19.5713 25.0514 19.7276C25.6522 19.8122 26.2008 20.1142 26.5931 20.5763C26.9853 21.0383 27.1937 21.6281 27.1786 22.2334Z" stroke="white" stroke-width="1.5" stroke-linecap="round" stroke-linejoin="round"/>
</svg>
