<svg width="20" height="16" viewBox="0 0 20 16" fill="none" xmlns="http://www.w3.org/2000/svg">
<path d="M17.9806 0.345562C18.6185 0.0966871 19.2779 0.654812 19.1378 1.32494L16.2772 14.9987C16.1436 15.6398 15.3904 15.9286 14.8625 15.5407L10.5441 12.3709L8.34293 14.6184C7.95612 15.0128 7.28918 14.8522 7.12324 14.3264L5.53512 9.28506L1.27812 8.02768C0.71893 7.86281 0.686617 7.08493 1.22855 6.87268L17.9806 0.345562ZM15.8807 3.37962C16.0671 3.21475 15.8505 2.92387 15.6393 3.05531L6.45087 8.75387C6.28924 8.85406 6.21493 9.05125 6.27199 9.23331L7.52505 14.7358C7.54987 14.8199 7.67049 14.808 7.6813 14.7207L7.96143 10.5274C7.97218 10.4239 8.02174 10.3291 8.09937 10.2602L15.8807 3.37962Z" fill="#060F42"/>
</svg>
