<svg width="18" height="20" viewBox="0 0 18 20" fill="none" xmlns="http://www.w3.org/2000/svg">
<path d="M17.4652 5.24527L17.4599 5.22414C17.0324 3.49583 15.1051 1.64133 13.3351 1.25552L13.3151 1.25139C10.4522 0.705266 7.54944 0.705266 4.68719 1.25139L4.66662 1.25552C2.89725 1.64133 0.969813 3.49595 0.54175 5.22414L0.537 5.24527C0.00850001 7.65883 0.00850001 10.1066 0.537 12.5201L0.54175 12.5413C0.951625 14.1958 2.73544 15.9651 4.43937 16.4517V18.381C4.43937 19.0793 5.29031 19.4222 5.77419 18.9183L7.72887 16.8865C8.15287 16.9101 8.57706 16.9234 9.00112 16.9234C10.4422 16.9234 11.8839 16.7871 13.3151 16.5141L13.335 16.51C15.105 16.1241 17.0324 14.2695 17.4599 12.5413L17.4651 12.5202C17.9936 10.1066 17.9936 7.65896 17.4652 5.24527ZM15.9182 12.1702C15.6328 13.2978 14.1694 14.6995 13.0067 14.9585C11.4845 15.248 9.95018 15.3717 8.41744 15.3293C8.38694 15.3284 8.35762 15.3403 8.33644 15.3621C8.11887 15.5854 6.90925 16.8273 6.90925 16.8273L5.39125 18.3853C5.28025 18.501 5.08525 18.4222 5.08525 18.2625V15.0665C5.08525 15.0137 5.04756 14.9689 4.99569 14.9586C4.99537 14.9585 4.99512 14.9585 4.99481 14.9585C3.83206 14.6995 2.36919 13.2977 2.08325 12.1701C1.60756 9.98852 1.60756 7.77689 2.08325 5.59527C2.36919 4.4677 3.83206 3.06595 4.99481 2.80695C7.65331 2.30133 10.3488 2.30133 13.0067 2.80695C14.1701 3.06595 15.6329 4.4677 15.9183 5.59527C16.3945 7.77696 16.3945 9.98858 15.9182 12.1702Z" fill="#060F42"/>
<path d="M11.5292 13.6456C11.3505 13.5913 11.1802 13.5548 11.0218 13.4893C9.3824 12.8091 7.87365 11.9316 6.67859 10.5865C5.99897 9.82163 5.46703 8.95807 5.01741 8.0442C4.80416 7.61082 4.62447 7.16051 4.44128 6.71301C4.27428 6.30501 4.52028 5.88351 4.77928 5.57601C5.02234 5.28744 5.33516 5.06669 5.6739 4.90388C5.93828 4.77688 6.19903 4.85013 6.39215 5.07419C6.80953 5.55869 7.19303 6.06794 7.5034 6.62957C7.69434 6.97501 7.64197 7.39726 7.2959 7.63232C7.21178 7.68945 7.13515 7.75657 7.05684 7.82107C6.98809 7.87763 6.92347 7.93476 6.87634 8.01132C6.79028 8.15138 6.78615 8.3167 6.84153 8.46901C7.26822 9.64157 7.9874 10.5534 9.16772 11.0446C9.35659 11.1232 9.54622 11.2146 9.76384 11.1893C10.1282 11.1468 10.2462 10.747 10.5016 10.5382C10.7512 10.3341 11.0702 10.3314 11.339 10.5016C11.6079 10.6718 11.8685 10.8544 12.1277 11.0391C12.382 11.2204 12.6352 11.3976 12.8698 11.6043C13.0954 11.8029 13.1731 12.0636 13.046 12.3331C12.8135 12.8269 12.4751 13.2376 11.987 13.4999C11.8492 13.5738 11.6846 13.5977 11.5292 13.6456C11.6846 13.5977 11.3505 13.5913 11.5292 13.6456Z" fill="#060F42"/>
<path d="M9.00363 4.33874C11.1479 4.39886 12.9093 5.82193 13.2867 7.94193C13.351 8.30318 13.3739 8.67243 13.4025 9.03911C13.4146 9.1933 13.3272 9.3398 13.1608 9.34186C12.989 9.34393 12.9116 9.20005 12.9004 9.04599C12.8783 8.74086 12.863 8.4343 12.821 8.1318C12.599 6.53436 11.3253 5.2128 9.73526 4.92924C9.49595 4.88655 9.2512 4.87536 9.00876 4.84993C8.85557 4.83386 8.65494 4.82461 8.62101 4.63411C8.59257 4.47443 8.72732 4.3473 8.87938 4.33911C8.92057 4.33668 8.96213 4.33861 9.00363 4.33874C11.1481 4.39886 8.96213 4.33861 9.00363 4.33874Z" fill="#060F42"/>
<path d="M12.2632 8.56352C12.2597 8.59033 12.2579 8.65327 12.2421 8.71252C12.1852 8.92777 11.8587 8.9547 11.7837 8.73752C11.7614 8.67308 11.758 8.5997 11.7579 8.53033C11.7572 8.0762 11.6585 7.62245 11.4294 7.22727C11.194 6.82108 10.8342 6.47977 10.4124 6.27308C10.1573 6.1482 9.88147 6.07052 9.60185 6.02433C9.47966 6.00408 9.35616 5.99189 9.23335 5.97477C9.08453 5.95408 9.00503 5.85927 9.01216 5.71264C9.01872 5.57527 9.11916 5.47633 9.26891 5.48489C9.76097 5.51277 10.2363 5.61927 10.6739 5.85089C11.5635 6.32208 12.0718 7.0657 12.2202 8.05877C12.2269 8.10383 12.2376 8.14833 12.241 8.19345C12.2494 8.30483 12.2547 8.41639 12.2632 8.56352C12.2597 8.5902 12.2547 8.41639 12.2632 8.56352Z" fill="#060F42"/>
<path d="M10.9318 8.51076C10.7524 8.51401 10.6564 8.41464 10.6379 8.25026C10.6251 8.13564 10.6148 8.01938 10.5874 7.90776C10.5336 7.68795 10.4168 7.48432 10.2319 7.34963C10.1446 7.28607 10.0457 7.23976 9.94212 7.20976C9.81056 7.1717 9.67381 7.1822 9.54262 7.15007C9.40006 7.11513 9.32119 6.99963 9.34362 6.86595C9.364 6.7442 9.48237 6.6492 9.61544 6.65888C10.4468 6.71888 11.041 7.1487 11.1258 8.12745C11.1319 8.19651 11.1389 8.26945 11.1236 8.33564C11.0972 8.44857 11.0134 8.50526 10.9318 8.51076C11.0134 8.50526 10.7524 8.51395 10.9318 8.51076Z" fill="#060F42"/>
</svg>
