<svg width="17" height="16" viewBox="0 0 17 16" fill="none" xmlns="http://www.w3.org/2000/svg">
<path fill-rule="evenodd" clip-rule="evenodd" d="M16.4982 8.17881C16.4982 7.63439 16.4529 7.08996 16.3622 6.55664H8.66406V9.63432H13.0743C12.8929 10.6232 12.3034 11.512 11.4417 12.0676V14.0675H14.072C15.6139 12.6787 16.4982 10.6232 16.4982 8.17881Z" fill="white"/>
<path fill-rule="evenodd" clip-rule="evenodd" d="M8.66498 15.9997C10.8644 15.9997 12.7238 15.2886 14.0729 14.0664L11.4427 12.0665C10.7057 12.5553 9.76472 12.8331 8.66498 12.8331C6.53354 12.8331 4.73089 11.422 4.08465 9.5332H1.375V11.5998C2.75817 14.2997 5.5812 15.9997 8.66498 15.9997Z" fill="white"/>
<path fill-rule="evenodd" clip-rule="evenodd" d="M4.08547 9.53417C3.74535 8.54532 3.74535 7.46757 4.08547 6.4676V4.41211H1.37582C0.20806 6.6676 0.20806 9.33418 1.37582 11.5897L4.08547 9.53417Z" fill="white"/>
<path fill-rule="evenodd" clip-rule="evenodd" d="M8.66498 3.16705C9.83274 3.14483 10.9551 3.57815 11.7941 4.36702L14.1296 2.0782C12.6444 0.722684 10.6944 -0.021738 8.66498 0.000483552C5.58119 0.000483552 2.75817 1.71154 1.375 4.41146L4.08465 6.47807C4.73089 4.57812 6.53354 3.16705 8.66498 3.16705Z" fill="white"/>
</svg>
