<svg width="24" height="25" viewBox="0 0 24 25" fill="none" xmlns="http://www.w3.org/2000/svg">
<g clip-path="url(#clip0_20072_47978)">
<path d="M12.9992 1.40039H20.9992C22.1992 1.40039 23.2992 2.40039 23.2992 3.70039V21.7004C23.2992 22.9004 22.2992 24.0004 20.9992 24.0004H12.9992C11.7992 24.0004 10.6992 23.0004 10.6992 21.7004V3.60039C10.7992 2.40039 11.7992 1.40039 12.9992 1.40039Z" stroke="#01579B" stroke-width="1.5"/>
<path d="M20.6992 6.09961H13.6992V7.59961H20.6992V6.09961Z" fill="#01579B"/>
<path d="M20.6992 9.09961H13.6992V10.5996H20.6992V9.09961Z" fill="#01579B"/>
<path d="M17 19.5996C17.5523 19.5996 18 19.1519 18 18.5996C18 18.0473 17.5523 17.5996 17 17.5996C16.4477 17.5996 16 18.0473 16 18.5996C16 19.1519 16.4477 19.5996 17 19.5996Z" fill="#01579B"/>
<path d="M10.499 7.90039H2.99922C1.79922 7.90039 0.699219 8.90039 0.699219 10.2004V17.1004C0.699219 18.3004 1.69922 19.4004 2.99922 19.4004H10.499V7.90039Z" stroke="#01579B" stroke-width="1.5"/>
<path d="M10.7016 21.5996V19.5996H10.1203H8.37656H7.60156V20.3996V21.3996V22.1996H8.37656H10.1203H10.7016C10.7016 21.8996 10.7016 21.7996 10.7016 21.5996Z" stroke="#01579B" stroke-width="1.5"/>
<path d="M10.8 21.5996H5.8C5.3 21.5996 5 21.8996 5 22.3996C5 22.8996 5.3 23.1996 5.8 23.1996H11.4C11 22.6996 10.8 22.1996 10.8 21.5996Z" fill="#01579B"/>
</g>
<defs>
<clipPath id="clip0_20072_47978">
<rect width="24" height="24" fill="white" transform="translate(0 0.599609)"/>
</clipPath>
</defs>
</svg>
