<svg width="20" height="18" viewBox="0 0 20 18" fill="none" xmlns="http://www.w3.org/2000/svg">
<path d="M3.62502 17.0995C3.11668 17.0321 3.76669 13.8989 3.76669 13.8989H2.66668C1.73334 13.8989 1 13.1576 1 12.2142V2.58511C1 1.64167 1.73334 0.900391 2.66668 0.900391H17.3335C18.2668 0.900391 19.0002 1.64167 19.0002 2.58511V12.2142C19.0002 13.1576 18.2668 13.8989 17.3335 13.8989H8.4334C8.4334 13.8989 4.13337 17.1669 3.62502 17.0995ZM2.66668 1.57428C2.10001 1.57428 1.66667 2.0123 1.66667 2.58511V12.2142C1.66667 12.787 2.10001 13.225 2.66668 13.225H4.6667L4.37503 15.5166L8.20006 13.225H17.3335C17.9002 13.225 18.3335 12.787 18.3335 12.2142V2.58511C18.3335 2.0123 17.9002 1.57428 17.3335 1.57428H2.66668Z" fill="#01579B" stroke="#01579B" stroke-width="0.5"/>
<path d="M6.40001 8.1008C6.89707 8.1008 7.30002 7.69785 7.30002 7.20079C7.30002 6.70373 6.89707 6.30078 6.40001 6.30078C5.90295 6.30078 5.5 6.70373 5.5 7.20079C5.5 7.69785 5.90295 8.1008 6.40001 8.1008Z" fill="#01579B"/>
<path d="M9.99962 8.1008C10.4967 8.1008 10.8996 7.69785 10.8996 7.20079C10.8996 6.70373 10.4967 6.30078 9.99962 6.30078C9.50256 6.30078 9.09961 6.70373 9.09961 7.20079C9.09961 7.69785 9.50256 8.1008 9.99962 8.1008Z" fill="#01579B"/>
<path d="M13.5992 8.1008C14.0963 8.1008 14.4992 7.69785 14.4992 7.20079C14.4992 6.70373 14.0963 6.30078 13.5992 6.30078C13.1022 6.30078 12.6992 6.70373 12.6992 7.20079C12.6992 7.69785 13.1022 8.1008 13.5992 8.1008Z" fill="#01579B"/>
</svg>
