<svg width="24" height="24" viewBox="0 0 24 24" fill="none" xmlns="http://www.w3.org/2000/svg">
<path d="M8.25 22.5C9.2165 22.5 10 21.7165 10 20.75C10 19.7835 9.2165 19 8.25 19C7.2835 19 6.5 19.7835 6.5 20.75C6.5 21.7165 7.2835 22.5 8.25 22.5Z" fill="#06A56C"/>
<path d="M17.75 22.5C18.7165 22.5 19.5 21.7165 19.5 20.75C19.5 19.7835 18.7165 19 17.75 19C16.7835 19 16 19.7835 16 20.75C16 21.7165 16.7835 22.5 17.75 22.5Z" fill="#06A56C"/>
<path d="M1.78516 3H4.49944L7.99949 13.5M5.61852 6.32556L20.2378 7.34395C21.2035 7.41122 21.9241 8.26099 21.8326 9.22472L21.6761 10.8736C21.6005 11.6701 20.9865 12.3096 20.1937 12.4174L7.06293 14.2035C6.27401 14.3108 5.73191 15.0517 5.86839 15.8361V15.8361C5.98545 16.5089 6.56938 17 7.25225 17H20.6423" stroke="#06A56C" stroke-width="1.5" stroke-linecap="round" stroke-linejoin="round"/>
</svg>
