<svg width="26" height="23" viewBox="0 0 26 23" fill="none" xmlns="http://www.w3.org/2000/svg">
<path d="M15.0042 3.17419L15.0044 3.17402C15.5382 2.64518 16.1726 2.22514 16.8715 1.93839C17.5704 1.65163 18.3199 1.50391 19.0771 1.50391C19.8342 1.50391 20.5837 1.65163 21.2826 1.93839C21.9815 2.22514 22.6159 2.64518 23.1498 3.17402L23.8535 2.4636L23.1501 3.17435C23.6842 3.70293 24.1073 4.32999 24.3958 5.01944C24.6843 5.70887 24.8327 6.44748 24.8327 7.19315C24.8327 7.93883 24.6843 8.67743 24.3958 9.36686C24.1073 10.0563 23.6842 10.6834 23.1501 11.2119L23.1499 11.2121L21.8484 12.5009L12.999 21.2633L4.14967 12.5009L2.84811 11.2121C1.76992 10.1445 1.16602 8.69866 1.16602 7.19315C1.16602 5.68765 1.76992 4.24179 2.84811 3.17419C3.92663 2.10626 5.3915 1.50456 6.92098 1.50456C8.45046 1.50456 9.91533 2.10626 10.9939 3.17419L12.2954 4.46296C12.6851 4.84884 13.3129 4.84884 13.7026 4.46296L15.0042 3.17419Z" stroke="#01579B" stroke-width="2" stroke-linecap="round" stroke-linejoin="round"/>
</svg>
