<svg width="26" height="22" viewBox="0 0 26 22" fill="none" xmlns="http://www.w3.org/2000/svg">
<path d="M15.6465 16.6024H11.7508C11.7508 16.6024 11.0443 16.5079 10.8424 15.9408C10.6406 15.3737 10.9434 15.1279 11.2058 14.9389C11.4682 14.7498 16.3126 12.954 17.9677 13.0485C19.6229 13.143 24.6288 15.9408 24.6288 15.9408L22.6103 21.005C22.6103 21.005 19.9863 18.9256 19.2192 18.9256C18.4522 18.9256 12.8004 20.816 11.6902 20.6837C10.58 20.5514 2.28398 16.5249 1.7188 15.8633C1.3151 15.3907 1.30161 14.964 1.48217 14.464C1.66273 13.964 2.22343 13.5211 2.72805 13.5967C3.17212 13.6723 9.28819 15.6761 9.28819 15.6761" stroke="#01579B" stroke-width="1.4" stroke-miterlimit="10" stroke-linecap="round" stroke-linejoin="round"/>
<path d="M9.5 11.9941C12.5376 11.9941 15 9.53171 15 6.49414C15 3.45657 12.5376 0.994141 9.5 0.994141C6.46243 0.994141 4 3.45657 4 6.49414C4 9.53171 6.46243 11.9941 9.5 11.9941Z" stroke="#01579B" stroke-width="1.4" stroke-miterlimit="10" stroke-linecap="round" stroke-linejoin="round"/>
</svg>
