<svg width="24" height="24" viewBox="0 0 24 24" fill="none" xmlns="http://www.w3.org/2000/svg">
<path fill-rule="evenodd" clip-rule="evenodd" d="M19.2297 7.00956C19.3023 6.98674 19.3978 7.03238 19.4933 7.15788C19.4933 7.15788 19.4933 7.15788 23.8098 11.3641C24.0619 11.6151 24.0619 11.9954 23.8098 12.1818C23.8098 12.1818 23.8098 12.1818 19.4933 16.4527C19.3978 16.5782 19.3023 16.6086 19.2297 16.5706C19.1572 16.5325 19.1113 16.4223 19.1113 16.2625V7.28338C19.1113 7.12746 19.1572 7.03238 19.2297 7.00956Z" fill="#ED1C24"/>
<path fill-rule="evenodd" clip-rule="evenodd" d="M11.8477 0H12.1532L12.4474 0.1217C12.4474 0.1217 12.4474 0.121699 16.8899 4.5181C17.0809 4.7691 17.0159 4.95926 16.6989 4.95926C16.6989 4.95926 16.6989 4.95926 14.8577 4.95926C14.5407 4.95926 14.2886 5.21026 14.2886 5.52592C14.2886 5.52592 14.2886 5.52592 14.2886 8.78899C14.2886 9.10465 14.0326 9.35565 13.6506 9.35565C13.6506 9.35565 13.6506 9.35565 10.4152 9.35565C10.0981 9.35565 9.84222 9.10465 9.84222 8.78899C9.84222 8.78899 9.84222 8.78899 9.84222 5.52592C9.84222 5.21026 9.59011 4.95926 9.26924 4.95926H7.302C6.98495 4.95926 6.92001 4.7691 7.11101 4.5181C7.11101 4.5181 7.11101 4.5181 11.5573 0.1217L11.8477 0Z" fill="#ED1C24"/>
<path fill-rule="evenodd" clip-rule="evenodd" d="M4.88753 6.91376C4.96775 6.95179 5.01741 7.06208 5.01741 7.22181V16.3873C5.01741 16.547 4.96775 16.6421 4.88753 16.6725C4.81113 16.703 4.70036 16.6725 4.57048 16.5775C4.57048 16.5775 4.57048 16.5775 0.189084 12.1811C-0.063028 11.9947 -0.063028 11.6144 0.189084 11.3634C0.189084 11.3634 0.189084 11.3634 4.57048 7.03165C4.70036 6.90615 4.81113 6.87572 4.88753 6.91376Z" fill="#ED1C24"/>
<path fill-rule="evenodd" clip-rule="evenodd" d="M10.4147 14.1289C10.4147 14.1289 10.4147 14.1289 13.6501 14.1289C14.0321 14.1289 14.2881 14.3799 14.2881 14.6956C14.2881 14.6956 14.2881 14.6956 14.2881 18.1488C14.2881 18.5253 14.5402 18.7763 14.8572 18.7763H16.5723C16.8894 18.7763 17.0155 18.9627 16.7633 19.1528C16.7633 19.1528 16.7633 19.1528 12.4469 23.4846C12.317 23.6101 12.1604 23.6747 12 23.6747C11.8433 23.6747 11.6829 23.6101 11.5569 23.4846C11.5569 23.4846 11.5569 23.4846 7.24039 19.1528C6.98446 18.9627 7.11052 18.7763 7.42757 18.7763C7.42757 18.7763 7.42757 18.7763 9.26875 18.7763C9.58962 18.7763 9.84173 18.5253 9.84173 18.1488C9.84173 18.1488 9.84173 18.1488 9.84173 14.6956C9.84173 14.3799 10.0977 14.1289 10.4147 14.1289Z" fill="#ED1C24"/>
</svg>
