<svg width="32" height="20" viewBox="0 0 32 20" fill="none" xmlns="http://www.w3.org/2000/svg">
<path d="M7.5 0.75C7.08579 0.75 6.75 1.08579 6.75 1.5C6.75 1.91421 7.08579 2.25 7.5 2.25V0.75ZM8.09804 15.75C7.68383 15.75 7.34804 16.0858 7.34804 16.5C7.34804 16.9142 7.68383 17.25 8.09804 17.25V15.75ZM27 15.75C26.5858 15.75 26.25 16.0858 26.25 16.5C26.25 16.9142 26.5858 17.25 27 17.25V15.75ZM15 15.75C14.5858 15.75 14.25 16.0858 14.25 16.5C14.25 16.9142 14.5858 17.25 15 17.25V15.75ZM23.0196 4.5V3.75C22.653 3.75 22.3401 4.01506 22.2798 4.3767L23.0196 4.5ZM1 8.75C0.585786 8.75 0.25 9.08579 0.25 9.5C0.25 9.91421 0.585786 10.25 1 10.25V8.75ZM3.5 4.75C3.08579 4.75 2.75 5.08579 2.75 5.5C2.75 5.91421 3.08579 6.25 3.5 6.25V4.75ZM4.03922 12.75C3.625 12.75 3.28922 13.0858 3.28922 13.5C3.28922 13.9142 3.625 14.25 4.03922 14.25V12.75ZM30.6747 14.753L31.421 14.8277L30.6747 14.753ZM22.2079 9.37052L21.4681 9.24722L22.2079 9.37052ZM29.2753 10.5838L29.6272 9.92144L29.2753 10.5838ZM24.5006 4.43855L23.7506 4.4312L24.5006 4.43855ZM7.5 2.25H21.5907V0.75H7.5V2.25ZM23.1647 11.25H29.1176V9.75H23.1647V11.25ZM29.8444 10.3147L28.6874 5.77557L27.2338 6.14608L28.3909 10.6853L29.8444 10.3147ZM23.7506 4.4312L23.75 4.49265L25.25 4.50735L25.2506 4.44591L23.7506 4.4312ZM26.0807 3.75H24.5V5.25H26.0807V3.75ZM28.7658 11.1623L28.9235 11.2461L29.6272 9.92144L29.4695 9.83766L28.7658 11.1623ZM30.0594 13.3686L29.9284 14.6784L31.421 14.8277L31.552 13.5179L30.0594 13.3686ZM28.7443 15.75H27V17.25H28.7443V15.75ZM23 15.75H15V17.25H23V15.75ZM11 15.75H8.09804V17.25H11V15.75ZM24.5 3.75H23.0196V5.25H24.5V3.75ZM22.2798 4.3767L21.4681 9.24722L22.9476 9.49382L23.7594 4.6233L22.2798 4.3767ZM13 8.75H1V10.25H13V8.75ZM17 4.75H3.5V6.25H17V4.75ZM9 12.75H4.03922V14.25H9V12.75ZM25 19.25C26.5188 19.25 27.75 18.0188 27.75 16.5H26.25C26.25 17.1904 25.6904 17.75 25 17.75V19.25ZM22.25 16.5C22.25 18.0188 23.4812 19.25 25 19.25V17.75C24.3096 17.75 23.75 17.1904 23.75 16.5H22.25ZM11.75 16.5C11.75 15.8096 12.3096 15.25 13 15.25V13.75C11.4812 13.75 10.25 14.9812 10.25 16.5H11.75ZM25 13.75C23.4812 13.75 22.25 14.9812 22.25 16.5H23.75C23.75 15.8096 24.3096 15.25 25 15.25V13.75ZM25 15.25C25.6904 15.25 26.25 15.8096 26.25 16.5H27.75C27.75 14.9812 26.5188 13.75 25 13.75V15.25ZM28.6874 5.77557C28.3836 4.58393 27.3104 3.75 26.0807 3.75V5.25C26.6247 5.25 27.0995 5.61892 27.2338 6.14608L28.6874 5.77557ZM14.25 16.5C14.25 17.1904 13.6904 17.75 13 17.75V19.25C14.5188 19.25 15.75 18.0188 15.75 16.5H14.25ZM29.9284 14.6784C29.8676 15.2867 29.3557 15.75 28.7443 15.75V17.25C30.1263 17.25 31.2835 16.2028 31.421 14.8277L29.9284 14.6784ZM10.25 16.5C10.25 18.0188 11.4812 19.25 13 19.25V17.75C12.3096 17.75 11.75 17.1904 11.75 16.5H10.25ZM23.1647 9.75C23.0287 9.75 22.9253 9.62792 22.9476 9.49382L21.4681 9.24722C21.2933 10.2956 22.1018 11.25 23.1647 11.25V9.75ZM15.75 16.5C15.75 14.9812 14.5188 13.75 13 13.75V15.25C13.6904 15.25 14.25 15.8096 14.25 16.5H15.75ZM28.9235 11.2461C29.6978 11.6575 30.1466 12.4961 30.0594 13.3686L31.552 13.5179C31.6998 12.0395 30.9393 10.6185 29.6272 9.92144L28.9235 11.2461ZM21.5907 2.25C22.7919 2.25 23.7624 3.23003 23.7506 4.4312L25.2506 4.44591C25.2705 2.4106 23.6261 0.75 21.5907 0.75V2.25Z" fill="#01579B"/>
</svg>
