<svg width="24" height="22" viewBox="0 0 24 22" fill="none" xmlns="http://www.w3.org/2000/svg">
<path d="M22.084 3.66602V9.16602H16.584" stroke="#01579B" stroke-width="2" stroke-linecap="round" stroke-linejoin="round"/>
<path d="M1.91602 18.334V12.834H7.41602" stroke="#01579B" stroke-width="2" stroke-linecap="round" stroke-linejoin="round"/>
<path d="M4.21685 8.24978C4.68175 6.936 5.47189 5.7614 6.51353 4.83558C7.55517 3.90977 8.81436 3.2629 10.1736 2.95535C11.5329 2.64781 12.9479 2.6896 14.2866 3.07683C15.6253 3.46406 16.8442 4.18411 17.8293 5.16978L22.0827 9.16645M1.91602 12.8331L6.16935 16.8298C7.15453 17.8155 8.37336 18.5355 9.71209 18.9227C11.0508 19.31 12.4658 19.3518 13.8251 19.0442C15.1843 18.7367 16.4435 18.0898 17.4852 17.164C18.5268 16.2382 19.3169 15.0636 19.7818 13.7498" stroke="#01579B" stroke-width="2" stroke-linecap="round" stroke-linejoin="round"/>
</svg>
