<svg width="17" height="24" viewBox="0 0 17 24" fill="none" xmlns="http://www.w3.org/2000/svg">
<path d="M15.6097 13.7778C15.6091 13.7777 7.74445 11.9796 7.74445 11.9796C5.40029 11.4436 3.92978 9.08916 4.46011 6.72067C4.99074 4.35219 7.3212 2.86683 9.66536 3.40263C12.0097 3.93862 13.48 6.29306 12.9497 8.66139C12.6839 9.84717 11.967 10.8107 11.023 11.411C11.0229 11.411 11.0206 11.413 11.0197 11.4134C10.992 11.4336 10.974 11.4663 10.974 11.5032C10.974 11.5549 11.0093 11.5983 11.057 11.6099C11.0571 11.61 14.5556 12.4093 14.5563 12.4093C14.6395 12.4284 14.7259 12.3959 14.7771 12.3277C14.7774 12.327 14.7772 12.3275 14.7772 12.3275C15.7411 11.039 16.32 9.43126 16.32 7.69232C16.32 3.5971 13.1532 0.25038 9.1587 0.0126762C9.1231 0.0106869 8.90662 0.00214386 8.83349 0.001091C7.06491 -0.0269604 5.27174 0.48539 3.7124 1.5887C-0.225506 4.37443 -1.18227 9.85767 1.57474 13.836L8.57192 23.9322C8.6018 23.9733 8.64992 24 8.7039 24C8.75835 24 8.80661 23.9729 8.83635 23.9314C8.83635 23.9314 15.7074 14.0315 15.708 14.0306C15.7255 14.0044 15.736 13.9726 15.736 13.9384C15.736 13.8601 15.6821 13.7946 15.6097 13.7778Z" fill="#FABC26"/>
</svg>
