<svg width="24" height="24" viewBox="0 0 24 24" fill="none" xmlns="http://www.w3.org/2000/svg">
<path d="M12 0C5.37411 0 0 5.35814 0 11.9673C0 18.5765 5.37411 23.9317 12 23.9317C18.6259 23.9317 24 18.5735 24 11.9673C24 5.36109 18.6289 0 12 0ZM13.7401 17.47C13.7401 19.2993 12.9026 20.2258 11.9171 20.6979C10.9317 21.167 9.79827 21.1788 9.20345 21.1788H8.2328C8.16473 21.1788 8.10851 21.1228 8.10851 21.0578V18.8597C8.10851 18.7918 8.16473 18.7387 8.2328 18.7387C10.183 18.7181 10.5115 17.771 10.5115 17.1248C10.5115 16.5081 10.5322 9.50657 10.5351 8.49454C10.5351 8.42668 10.5914 8.37357 10.6594 8.37357H13.6306C13.6986 8.37357 13.7549 8.42963 13.7549 8.49454C13.7519 9.31479 13.7401 14.0887 13.7401 17.47ZM14.2609 5.28438C14.2609 6.04856 13.7874 6.73603 13.0713 7.01043L10.689 7.92509C10.6298 7.94574 10.5677 7.90444 10.5677 7.84248V6.12823C10.5677 6.04856 10.615 5.97775 10.689 5.94824L14.258 4.58215V5.28438H14.2609ZM15.3411 2.35156C15.3411 3.1187 14.8646 3.80912 14.1425 4.08057L10.689 5.3847C10.6298 5.40535 10.5677 5.36404 10.5677 5.30208V3.58783C10.5677 3.50817 10.618 3.43735 10.692 3.40785L15.3381 1.65229V2.35156H15.3411Z" fill="#304FFE"/>
</svg>
