<svg width="26" height="26" viewBox="0 0 26 26" fill="none" xmlns="http://www.w3.org/2000/svg">
<path d="M17.9937 5.67578H7.89453C7.34225 5.67578 6.89453 6.1235 6.89453 6.67578V22.4621C6.89453 23.5667 7.78996 24.4621 8.89453 24.4621H16.9937C18.0983 24.4621 18.9937 23.5667 18.9937 22.4621V6.67578C18.9937 6.1235 18.546 5.67578 17.9937 5.67578Z" stroke="#01579B" stroke-width="1.2"/>
<path d="M12.9025 16.2455C15.062 16.2455 16.8127 14.8627 16.8127 13.1569C16.8127 11.4511 15.062 10.0684 12.9025 10.0684C10.7429 10.0684 8.99219 11.4511 8.99219 13.1569C8.99219 14.8627 10.7429 16.2455 12.9025 16.2455Z" stroke="#01579B" stroke-width="1.3"/>
<path d="M12.9019 8.14167C13.4496 8.14167 13.8936 7.69766 13.8936 7.14994C13.8936 6.60222 13.4496 6.1582 12.9019 6.1582C12.3542 6.1582 11.9102 6.60222 11.9102 7.14994C11.9102 7.69766 12.3542 8.14167 12.9019 8.14167Z" stroke="#01579B" stroke-width="1.2"/>
<path d="M12.9878 19.7589C13.5355 19.7589 13.9796 19.3148 13.9796 18.7671C13.9796 18.2194 13.5355 17.7754 12.9878 17.7754C12.4401 17.7754 11.9961 18.2194 11.9961 18.7671C11.9961 19.3148 12.4401 19.7589 12.9878 19.7589Z" stroke="#01579B" stroke-width="1.2"/>
<path d="M11.4849 24.4625C11.4849 24.4058 11.4849 24.3775 11.4849 24.3208C11.4849 21.7989 9.44471 19.7305 6.89453 19.7305V22.4625C6.89453 23.567 7.78996 24.4625 8.89453 24.4625H11.4849Z" stroke="#01579B" stroke-width="1.2"/>
<path d="M18.9946 19.7578C18.9663 19.7578 18.9663 19.7578 18.938 19.7578C16.4161 19.7578 14.3477 21.798 14.3477 24.3481C14.3477 24.4048 14.3477 24.4331 14.3477 24.4898H16.9663C18.0709 24.4898 18.9663 23.5944 18.9663 22.4898V19.7578H18.9946Z" stroke="#01579B" stroke-width="1.2"/>
<path d="M6.89603 5.67578H4.0625V9.16102H6.89603V5.67578Z" stroke="#01579B" stroke-width="1.2"/>
<path d="M21.7427 5.67578H18.9941V9.16102H21.7427V5.67578Z" stroke="#01579B" stroke-width="1.2"/>
<path d="M3.42578 1.42578C2.32121 1.42578 1.42578 2.32121 1.42578 3.42578V10.7599C1.42578 11.8645 2.32121 12.7599 3.42578 12.7599H5.8945C6.44678 12.7599 6.89449 12.3122 6.89449 11.7599V6.67608C6.89449 6.12379 7.34221 5.67608 7.89449 5.67608H17.9937C18.546 5.67608 18.9937 6.12379 18.9937 6.67608V11.7599C18.9937 12.3122 19.4414 12.7599 19.9937 12.7599H22.5757C23.6803 12.7599 24.5757 11.8645 24.5757 10.7599V3.42578C24.5757 2.32121 23.6803 1.42578 22.5757 1.42578H3.42578Z" stroke="#01579B" stroke-width="1.2"/>
</svg>
