<svg width="17" height="17" viewBox="0 0 17 17" fill="none" xmlns="http://www.w3.org/2000/svg">
<path d="M5.23628 15.6658H2.98631C2.58849 15.6658 2.20696 15.5078 1.92566 15.2265C1.64436 14.9452 1.48633 14.5637 1.48633 14.1658V8.9159C1.48633 8.51809 1.64436 8.13656 1.92566 7.85526C2.20696 7.57396 2.58849 7.41592 2.98631 7.41592H5.23628M10.4862 5.91595V2.91599C10.4862 2.31926 10.2492 1.74697 9.82721 1.32502C9.40525 0.903065 8.83297 0.666016 8.23624 0.666016L5.23628 7.41592V15.6658H13.6962C14.0579 15.6699 14.4089 15.5431 14.6846 15.3088C14.9602 15.0745 15.1419 14.7485 15.1961 14.3908L16.2311 7.64092C16.2638 7.42594 16.2493 7.20644 16.1886 6.99762C16.128 6.7888 16.0227 6.59566 15.88 6.43157C15.7373 6.26749 15.5607 6.13639 15.3623 6.04736C15.1639 5.95832 14.9486 5.91348 14.7311 5.91595H10.4862Z" stroke="#01579B" stroke-width="1.34998" stroke-linecap="round" stroke-linejoin="round"/>
</svg>
