<svg width="24" height="25" viewBox="0 0 24 25" fill="none" xmlns="http://www.w3.org/2000/svg">
<path d="M8.25 23C9.2165 23 10 22.2165 10 21.25C10 20.2835 9.2165 19.5 8.25 19.5C7.2835 19.5 6.5 20.2835 6.5 21.25C6.5 22.2165 7.2835 23 8.25 23Z" fill="white"/>
<path d="M17.75 23C18.7165 23 19.5 22.2165 19.5 21.25C19.5 20.2835 18.7165 19.5 17.75 19.5C16.7835 19.5 16 20.2835 16 21.25C16 22.2165 16.7835 23 17.75 23Z" fill="white"/>
<path d="M1.78516 3.5H4.49944L7.99949 14M5.61852 6.82556L20.2378 7.84395C21.2035 7.91122 21.9241 8.76099 21.8326 9.72472L21.6761 11.3736C21.6005 12.1701 20.9865 12.8096 20.1937 12.9174L7.06293 14.7035C6.27401 14.8108 5.73191 15.5517 5.86839 16.3361V16.3361C5.98545 17.0089 6.56938 17.5 7.25225 17.5H20.6423" stroke="white" stroke-width="1.5" stroke-linecap="round" stroke-linejoin="round"/>
</svg>
