<svg width="16" height="14" viewBox="0 0 16 14" fill="none" xmlns="http://www.w3.org/2000/svg">
<path d="M11.624 0.990234C12.0554 0.990266 12.4827 1.07493 12.8809 1.23828C13.2789 1.40165 13.6405 1.64039 13.9443 1.94141C14.2484 2.24238 14.4891 2.59985 14.6533 2.99219C14.8174 3.38438 14.9023 3.80444 14.9023 4.22852C14.9023 4.65273 14.8175 5.0735 14.6533 5.46582C14.5097 5.80896 14.3076 6.12517 14.0557 6.40039L13.9443 6.51562L13.168 7.28418L7.99902 12.4014L2.83105 7.28418L2.05469 6.51562C1.44103 5.9078 1.09766 5.08476 1.09766 4.22852C1.09774 3.37223 1.4409 2.54919 2.05469 1.94141C2.66873 1.3334 3.50346 0.990352 4.375 0.990234C5.2467 0.990234 6.08214 1.33329 6.69629 1.94141L7.47168 2.70996C7.76396 2.99937 8.23506 2.99937 8.52734 2.70996L9.30371 1.94141C9.60764 1.64036 9.96907 1.40162 10.3672 1.23828C10.7654 1.0749 11.1925 0.990234 11.624 0.990234Z" stroke="#01579B" stroke-width="1.5" stroke-linecap="round" stroke-linejoin="round"/>
</svg>
