<svg width="60" height="41" viewBox="0 0 60 41" fill="none" xmlns="http://www.w3.org/2000/svg">
<g clip-path="url(#clip0_19831_8923)">
<path d="M43.668 1.67188H3.66797V28.1433H43.668V1.67188Z" fill="white"/>
<path d="M44.8512 27.3141C44.8512 28.4186 43.9558 29.3141 42.8512 29.3141H4.48438C3.37981 29.3141 2.48438 28.4186 2.48438 27.3141V2.5C2.48438 1.39543 3.37981 0.5 4.48438 0.5H42.8512C43.9558 0.5 44.8512 1.39543 44.8512 2.5V27.3141ZM4.85124 24.9714C4.85124 26.076 5.74667 26.9714 6.85124 26.9714H40.4844C41.589 26.9714 42.4844 26.076 42.4844 24.9714V4.84261C42.4844 3.73804 41.5889 2.84261 40.4844 2.84261H6.85124C5.74667 2.84261 4.85124 3.73804 4.85124 4.84261V24.9714Z" fill="#060F42"/>
<path d="M58.4609 33.3552H43.668V8.81641H55.0881L58.4609 21.0565V26.7373V27.5573V28.5529V33.3552Z" fill="white"/>
<path d="M57.4557 32.5939H52.2486L51.8936 32.1254C51.8936 32.1254 51.1835 31.1883 49.9409 31.1883C48.6391 31.1883 47.9291 32.1254 47.9291 32.1254L47.574 32.6524H44.793V30.3098H46.4498C47.1598 29.6071 48.3433 28.8457 50.0001 28.8457C51.5977 28.8457 53.1953 29.6071 53.8462 30.3098H57.4557V32.5939Z" fill="#FFCD1B"/>
<path d="M59.6441 32.5259C59.6441 33.6305 58.7487 34.5259 57.6441 34.5259H44.4844C43.3798 34.5259 42.4844 33.6305 42.4844 32.5259V9.64453C42.4844 8.53996 43.3798 7.64453 44.4844 7.64453H54.4527C55.3523 7.64453 56.1413 8.24525 56.3806 9.1125L59.5721 20.6777C59.6199 20.851 59.6441 21.0299 59.6441 21.2097V32.5259ZM44.8512 30.1833C44.8512 31.2879 45.7467 32.1833 46.8512 32.1833H55.2773C56.3818 32.1833 57.2773 31.2879 57.2773 30.1833V21.5003C57.2773 21.322 57.2534 21.1445 57.2064 20.9725L54.6032 11.4593C54.3653 10.59 53.5754 9.98714 52.6741 9.98714H46.8512C45.7467 9.98714 44.8512 10.8826 44.8512 11.9871V30.1833Z" fill="#060F42"/>
<path d="M15.1611 7.52734H11.4688C10.3642 7.52734 9.46875 8.42277 9.46875 9.52734V10.2126C9.46875 11.3171 10.3642 12.2126 11.4688 12.2126H15.1611C16.2656 12.2126 17.1611 11.3171 17.1611 10.2126V9.52734C17.1611 8.42277 16.2656 7.52734 15.1611 7.52734Z" fill="#FFCD1B"/>
<path d="M41.6688 28.1426H3.18359C2.07902 28.1426 1.18359 29.038 1.18359 30.1426V31.3549C1.18359 32.4594 2.07902 33.3549 3.18359 33.3549H41.6688C42.7734 33.3549 43.6688 32.4594 43.6688 31.3549V30.1426C43.6688 29.038 42.7734 28.1426 41.6688 28.1426Z" fill="white"/>
<path d="M44.8521 32.5256C44.8521 33.6302 43.9566 34.5256 42.8521 34.5256H2C0.895432 34.5256 0 33.6302 0 32.5256V28.9707C0 27.8661 0.895431 26.9707 2 26.9707H42.8521C43.9566 26.9707 44.8521 27.8661 44.8521 28.9707V32.5256ZM2.36686 30.7482C2.36686 31.5406 3.00927 32.183 3.80171 32.183H41.0504C41.8428 32.183 42.4852 31.5406 42.4852 30.7482C42.4852 29.9557 41.8428 29.3133 41.0504 29.3133H3.80171C3.00927 29.3133 2.36686 29.9557 2.36686 30.7482Z" fill="#060F42"/>
<path d="M54.0983 17.4079C54.3645 18.6527 53.4155 19.8262 52.1425 19.8262H48.3906C47.2861 19.8262 46.3906 18.9307 46.3906 17.8262V13.8027C46.3906 12.6982 47.2861 11.8027 48.3906 11.8027H51.282C52.2254 11.8027 53.0405 12.4619 53.2378 13.3845L54.0983 17.4079Z" fill="#01579B"/>
<path d="M9.41025 39.3285C11.4037 39.3285 13.0197 37.7291 13.0197 35.7561C13.0197 33.783 11.4037 32.1836 9.41025 32.1836C7.41679 32.1836 5.80078 33.783 5.80078 35.7561C5.80078 37.7291 7.41679 39.3285 9.41025 39.3285Z" fill="white"/>
<path d="M9.41009 40.4993C6.74736 40.4993 4.61719 38.3909 4.61719 35.7555C4.61719 33.1201 6.74736 31.0117 9.41009 31.0117C12.0728 31.0117 14.203 33.1201 14.203 35.7555C14.203 38.3909 12.0136 40.4993 9.41009 40.4993ZM9.41009 33.3543C8.04914 33.3543 6.98405 34.4085 6.98405 35.7555C6.98405 37.1025 8.04914 38.1567 9.41009 38.1567C10.771 38.1567 11.8361 37.1025 11.8361 35.7555C11.8361 34.4085 10.7119 33.3543 9.41009 33.3543Z" fill="#060F42"/>
<path d="M31.1251 39.3285C33.1185 39.3285 34.7346 37.7291 34.7346 35.7561C34.7346 33.783 33.1185 32.1836 31.1251 32.1836C29.1316 32.1836 27.5156 33.783 27.5156 35.7561C27.5156 37.7291 29.1316 39.3285 31.1251 39.3285Z" fill="white"/>
<path d="M31.1249 40.4993C28.4622 40.4993 26.332 38.3909 26.332 35.7555C26.332 33.1201 28.4622 31.0117 31.1249 31.0117C33.7877 31.0117 35.9178 33.1201 35.9178 35.7555C35.9178 38.3909 33.7285 40.4993 31.1249 40.4993ZM31.1249 33.3543C29.764 33.3543 28.6989 34.4085 28.6989 35.7555C28.6989 37.1025 29.764 38.1567 31.1249 38.1567C32.4859 38.1567 33.551 37.1025 33.551 35.7555C33.551 34.4085 32.4267 33.3543 31.1249 33.3543Z" fill="#060F42"/>
<path d="M49.9415 39.3285C51.935 39.3285 53.551 37.7291 53.551 35.7561C53.551 33.783 51.935 32.1836 49.9415 32.1836C47.948 32.1836 46.332 33.783 46.332 35.7561C46.332 37.7291 47.948 39.3285 49.9415 39.3285Z" fill="white"/>
<path d="M49.9413 40.4993C47.2786 40.4993 45.1484 38.3909 45.1484 35.7555C45.1484 33.1201 47.2786 31.0117 49.9413 31.0117C52.6041 31.0117 54.7342 33.1201 54.7342 35.7555C54.7342 38.3909 52.6041 40.4993 49.9413 40.4993ZM49.9413 33.3543C48.5804 33.3543 47.5153 34.4085 47.5153 35.7555C47.5153 37.1025 48.5804 38.1567 49.9413 38.1567C51.3023 38.1567 52.3674 37.1025 52.3674 35.7555C52.3674 34.4085 51.3023 33.3543 49.9413 33.3543Z" fill="#060F42"/>
<path d="M58.8307 23.1055H56.9721C56.3252 23.1055 55.8008 23.6299 55.8008 24.2768C55.8008 24.9237 56.3252 25.4481 56.9721 25.4481H58.8307C59.4776 25.4481 60.002 24.9237 60.002 24.2768C60.002 23.6299 59.4776 23.1055 58.8307 23.1055Z" fill="#060F42"/>
<path d="M9.40782 37.1042C10.1595 37.1042 10.7688 36.5011 10.7688 35.7572C10.7688 35.0132 10.1595 34.4102 9.40782 34.4102C8.65619 34.4102 8.04688 35.0132 8.04688 35.7572C8.04688 36.5011 8.65619 37.1042 9.40782 37.1042Z" fill="#060F42"/>
<path d="M31.1227 37.1042C31.8743 37.1042 32.4836 36.5011 32.4836 35.7572C32.4836 35.0132 31.8743 34.4102 31.1227 34.4102C30.371 34.4102 29.7617 35.0132 29.7617 35.7572C29.7617 36.5011 30.371 37.1042 31.1227 37.1042Z" fill="#060F42"/>
<path d="M49.9391 37.1042C50.6907 37.1042 51.3 36.5011 51.3 35.7572C51.3 35.0132 50.6907 34.4102 49.9391 34.4102C49.1874 34.4102 48.5781 35.0132 48.5781 35.7572C48.5781 36.5011 49.1874 37.1042 49.9391 37.1042Z" fill="#060F42"/>
</g>
<defs>
<clipPath id="clip0_19831_8923">
<rect width="60" height="40" fill="white" transform="translate(0 0.5)"/>
</clipPath>
</defs>
</svg>
