<svg width="52" height="49" viewBox="0 0 52 49" fill="none" xmlns="http://www.w3.org/2000/svg">
<g clip-path="url(#clip0_19831_8954)">
<path d="M48.3139 16.0605C49.7569 16.0605 50.9326 17.221 50.9326 18.6452V44.9133C50.9326 46.3375 49.7569 47.4979 48.3139 47.4979H3.68902C2.24606 47.4452 1.07031 46.2847 1.07031 44.8605V18.6452C1.07031 17.221 2.24606 16.0605 3.68902 16.0605H17.6376" fill="white"/>
<path d="M48.3124 48.5004H3.68756C1.65673 48.5004 0 46.8652 0 44.8608V18.6454C0 16.641 1.65673 15.0059 3.68756 15.0059H17.6362V17.1157H3.68756C2.83248 17.1157 2.13772 17.8015 2.13772 18.6454V44.9136C2.13772 45.7048 2.83248 46.3905 3.68756 46.3905H48.3124C49.1675 46.3905 49.8623 45.7048 49.8623 44.8608V18.6454C49.8623 17.8015 49.1675 17.1157 48.3124 17.1157V15.0059C50.3433 15.0059 52 16.641 52 18.6454V44.9136C52 46.8652 50.3433 48.5004 48.3124 48.5004Z" fill="#060F42"/>
<path d="M12.3049 32.5176H5.54322C4.9606 32.5176 4.48828 32.9899 4.48828 33.5725C4.48828 34.1552 4.9606 34.6275 5.54323 34.6275H12.3049C12.8875 34.6275 13.3598 34.1552 13.3598 33.5725C13.3598 32.9899 12.8875 32.5176 12.3049 32.5176Z" fill="#060F42"/>
<path d="M22.3521 38.373H5.54323C4.9606 38.373 4.48828 38.8454 4.48828 39.428C4.48828 40.0106 4.96059 40.4829 5.54322 40.4829H22.3521C22.9348 40.4829 23.4071 40.0106 23.4071 39.428C23.4071 38.8454 22.9348 38.373 22.3521 38.373Z" fill="#060F42"/>
<path d="M23.4221 32.5176H16.6604C16.0778 32.5176 15.6055 32.9899 15.6055 33.5725C15.6055 34.1552 16.0778 34.6275 16.6604 34.6275H23.4221C24.0047 34.6275 24.477 34.1552 24.477 33.5725C24.477 32.9899 24.0047 32.5176 23.4221 32.5176Z" fill="#060F42"/>
<path d="M34.4846 32.5176H27.7229C27.1403 32.5176 26.668 32.9899 26.668 33.5725C26.668 34.1552 27.1403 34.6275 27.7229 34.6275H34.4846C35.0672 34.6275 35.5395 34.1552 35.5395 33.5725C35.5395 32.9899 35.0672 32.5176 34.4846 32.5176Z" fill="#060F42"/>
<path d="M45.6017 32.5176H38.8401C38.2575 32.5176 37.7852 32.9899 37.7852 33.5725C37.7852 34.1552 38.2575 34.6275 38.8401 34.6275H45.6017C46.1844 34.6275 46.6567 34.1552 46.6567 33.5725C46.6567 32.9899 46.1844 32.5176 45.6017 32.5176Z" fill="#060F42"/>
<path d="M11.3073 22.6016H6.86328C5.75871 22.6016 4.86328 23.497 4.86328 24.6016V26.4038C4.86328 27.5083 5.75871 28.4038 6.86328 28.4038H11.3073C12.4118 28.4038 13.3073 27.5083 13.3073 26.4038V24.6016C13.3073 23.497 12.4118 22.6016 11.3073 22.6016Z" fill="#FFCD1B"/>
<path d="M40.3518 5.29964C37.359 4.77217 34.7938 3.50623 33.1905 1.97656C31.5872 3.50623 29.0219 4.77217 26.0291 5.29964C24.1586 5.66887 22.3416 5.66887 20.7383 5.40513V15.5326C20.7383 23.3392 26.0291 26.715 33.1905 28.8249C40.4053 26.7678 45.6427 23.3392 45.6427 15.5326V5.45788C44.0929 5.66887 42.2223 5.66887 40.3518 5.29964Z" fill="white"/>
<path d="M33.189 29.933L32.8684 29.8275C26.7224 28.0868 19.668 24.8692 19.668 15.5857V4.19231L20.8972 4.4033C22.447 4.61429 24.1572 4.61429 25.8674 4.2978C28.5395 3.82308 30.9444 2.66264 32.4943 1.23846L33.189 0.5L33.9372 1.23846C35.4336 2.71538 37.8386 3.82308 40.5642 4.2978C42.2743 4.61429 43.9845 4.66703 45.5344 4.4033L46.7635 4.19231V15.5857C46.7635 24.8692 39.7091 28.0868 33.5097 29.8802L33.189 29.933ZM21.8057 6.61868V15.5857C21.8057 21.7571 25.226 25.3967 33.189 27.7703C41.152 25.3967 44.5724 21.7571 44.5724 15.5857V6.61868C43.1294 6.72418 41.633 6.61868 40.1366 6.35495C37.411 5.88022 34.9527 4.77253 33.189 3.4011C31.4254 4.82527 28.9136 5.88022 26.2415 6.35495C24.745 6.61868 23.2486 6.72418 21.8057 6.61868Z" fill="#060F42"/>
<path d="M33.187 25.5556C26.5601 23.4984 23.9414 20.6501 23.9414 15.5863V8.7292C24.8499 8.67645 25.7585 8.57096 26.6136 8.41271C29.0719 7.93799 31.3165 7.09403 33.187 5.93359C35.0575 7.09403 37.3021 7.93799 39.7605 8.41271C40.6691 8.57096 41.5776 8.67645 42.4327 8.7292V15.5336C42.4861 20.5973 39.8674 23.4457 33.187 25.5556Z" fill="#01579B"/>
<path d="M33.1873 20.8603C36.434 20.8603 39.066 18.2625 39.066 15.0581C39.066 11.8536 36.434 9.25586 33.1873 9.25586C29.9406 9.25586 27.3086 11.8536 27.3086 15.0581C27.3086 18.2625 29.9406 20.8603 33.1873 20.8603Z" fill="white"/>
<path d="M35.6994 12.8945L32.7066 16.6396L30.6758 15.3737" fill="white"/>
<path d="M34.0425 16.6432C33.4019 17.4243 32.2793 17.605 31.4259 17.0644L30.2264 16.3046C29.736 15.9939 29.5886 15.3455 29.8966 14.8534C30.208 14.3558 30.8656 14.2079 31.36 14.5245L31.5122 14.6219C32.0406 14.9602 32.7386 14.8482 33.1347 14.3617L34.182 13.0754C34.5507 12.6226 35.213 12.5459 35.6754 12.9024C36.1566 13.2735 36.2359 13.969 35.8505 14.4389L34.0425 16.6432Z" fill="#060F42"/>
</g>
<defs>
<clipPath id="clip0_19831_8954">
<rect width="52" height="48" fill="white" transform="translate(0 0.5)"/>
</clipPath>
</defs>
</svg>
