<svg width="56" height="49" viewBox="0 0 56 49" fill="none" xmlns="http://www.w3.org/2000/svg">
<path d="M54.1435 11.297C54.1164 11.3016 54.0896 11.3039 54.0621 11.3033C53.6581 11.2941 51.8083 11.188 50.5127 12.0518C50.1052 12.3234 49.6977 13.2119 49.4022 14.4931C49.3486 14.7254 49.1446 14.893 48.9064 14.901C47.85 14.9367 46.3834 15.1159 45.726 15.6418C44.9035 16.3272 44.4579 17.7661 44.0439 21.8001C43.9988 22.2386 43.4502 22.4168 43.1615 22.0837L42.3571 21.1555C42.1602 20.9283 41.8088 20.925 41.6076 21.1485L32.6909 31.056C32.6082 31.1478 32.5625 31.267 32.5625 31.3905V43.2637C32.5625 43.5399 32.7864 43.7637 33.0625 43.7637H33.5583C33.8345 43.7637 34.0583 43.5399 34.0583 43.2637V31.9859C34.0583 31.8641 34.1028 31.7466 34.1832 31.6553L41.4564 23.403C41.6573 23.1751 42.0134 23.1776 42.2111 23.4082L43.4958 24.907C43.5828 25.0085 43.6256 25.1413 43.6139 25.2745C43.4703 26.9076 43.3266 27.465 43.183 27.6086L38.3222 32.1917C38.1171 32.385 38.1123 32.7097 38.3117 32.909L38.6563 33.2537C38.8455 33.4429 39.1502 33.4496 39.3475 33.2689L49.4528 24.0176C49.5563 23.9229 49.6152 23.7891 49.6152 23.6489V23.5698C50.0476 19.2451 50.7579 14.2258 51.2106 13.1978C51.2404 13.13 51.2919 13.0765 51.3567 13.0407C51.6962 12.8533 52.2155 12.7333 52.688 12.6808C52.9695 12.6495 53.1967 12.8852 53.1865 13.1682L52.7612 24.9339C52.7581 25.0203 52.7326 25.1043 52.6874 25.1779L43.457 40.1772C43.3077 40.4198 43.391 40.738 43.64 40.8763L44.1134 41.1394C44.3464 41.2688 44.6399 41.1928 44.7807 40.9666L54.3322 25.6262C54.3779 25.5529 54.4038 25.469 54.4074 25.3828L54.9746 11.7695C54.9878 11.4524 54.7059 11.2033 54.3928 11.2555L54.1435 11.297ZM46.248 24.9548C45.8903 25.2768 45.2586 24.9461 45.2965 24.4664C45.3284 24.0623 45.3648 23.6174 45.4268 23.1211C45.5738 21.3573 45.8652 17.5717 46.5848 16.8727C46.6101 16.8482 46.6388 16.8305 46.671 16.8163C46.9539 16.6913 47.6568 16.4907 48.4412 16.4176C48.7441 16.3893 48.9783 16.6592 48.9363 16.9605C48.6717 18.8582 48.4071 20.9689 48.1424 23.0857C48.1275 23.205 48.0701 23.3149 47.9808 23.3953L46.248 24.9548Z" fill="#060F42" stroke="#060F42" stroke-width="0.7"/>
<path d="M1.62413 11.4295C1.30636 11.366 1.01301 11.6168 1.0265 11.9406L1.59285 25.5332C1.59644 25.6195 1.62232 25.7034 1.66796 25.7767L11.2195 41.117C11.3603 41.3432 11.6538 41.4192 11.8868 41.2898L12.3602 41.0268C12.6092 40.8884 12.6925 40.5703 12.5432 40.3277L3.31285 25.3284C3.26757 25.2548 3.24213 25.1707 3.23901 25.0844L2.81374 13.3186C2.80351 13.0356 3.03068 12.7999 3.31217 12.8312C3.79571 12.8849 4.32822 13.0093 4.66695 13.2044C4.71608 13.2326 4.75784 13.2717 4.78453 13.3218C5.2458 14.1857 6.09554 19.2331 6.38504 23.7202V23.7992C6.38504 23.9395 6.44395 24.0733 6.54741 24.168L16.6527 33.4193C16.85 33.6 17.1547 33.5933 17.3439 33.4041L17.6834 33.0646C17.8847 32.8633 17.8775 32.5348 17.6677 32.3425L12.8297 27.9076C12.7264 27.8129 12.668 27.679 12.6516 27.5398C12.6089 27.1773 12.4806 26.5256 12.2667 25.4552C12.2365 25.3045 12.2773 25.148 12.3772 25.0313L13.6395 23.5587C13.8372 23.328 14.1933 23.3255 14.3942 23.5535L21.6674 31.8057C21.7479 31.897 21.7923 32.0146 21.7923 32.1363V43.4142C21.7923 43.6903 22.0161 43.9142 22.2923 43.9142H22.7881C23.0643 43.9142 23.2881 43.6903 23.2881 43.4142V31.5409C23.2881 31.4174 23.2424 31.2983 23.1598 31.2065L14.243 21.2989C14.0419 21.0755 13.6904 21.0788 13.4935 21.306L12.6891 22.2341C12.4004 22.5672 11.8518 22.389 11.8068 21.9505C11.3927 17.9165 10.9471 16.4776 10.1247 15.7922C9.4672 15.2663 8.00067 15.0871 6.94427 15.0514C6.70607 15.0434 6.50204 14.8757 6.44847 14.6435C6.15298 13.3623 5.74546 12.4739 5.33795 12.2022C4.05048 11.3439 2.2158 11.4432 1.79635 11.4535C1.76343 11.4543 1.73166 11.451 1.69937 11.4446L1.62413 11.4295ZM7.88222 23.4073C7.78545 23.3202 7.72657 23.1988 7.71746 23.069C7.57867 21.0897 7.32524 18.8983 6.95719 16.9966C6.8967 16.6841 7.13426 16.3898 7.45204 16.4083C8.26744 16.4559 8.98743 16.5996 9.22716 16.8393C9.97508 17.4377 10.2743 21.3269 10.4238 23.1219C10.4859 23.6183 10.5222 24.0631 10.5541 24.4672C10.592 24.947 9.96032 25.2776 9.60262 24.9557L7.88222 23.4073Z" fill="#060F42" stroke="#060F42" stroke-width="0.7"/>
<path d="M28.3684 22.9908C34.6471 22.9908 39.7369 17.9009 39.7369 11.6223C39.7369 5.34369 34.6471 0.253906 28.3684 0.253906C22.0898 0.253906 17 5.34369 17 11.6223C17 17.9009 22.0898 22.9908 28.3684 22.9908Z" fill="#FFCD1B"/>
<path d="M28.9878 19.2539H28.2005C28.0065 19.2539 27.9095 19.1528 27.9095 18.9507V17.7969C27.9095 17.6363 27.7793 17.506 27.6186 17.506C26.8085 17.506 26.1695 17.2622 25.7017 16.7747C25.2339 16.2753 25 15.5916 25 14.7236V14.3134C25 14.0993 25.1027 13.9923 25.3081 13.9923H26.3863C26.5803 13.9923 26.6773 14.0993 26.6773 14.3134V14.5809C26.6773 15.0803 26.7857 15.443 27.0024 15.6689C27.2192 15.8829 27.5729 15.9899 28.0636 15.9899H28.9535C29.4328 15.9899 29.7808 15.877 29.9976 15.6511C30.2143 15.4132 30.3227 15.0327 30.3227 14.5096V13.9388C30.3227 13.4394 30.1744 13.1005 29.8777 12.9222C29.5811 12.7319 29.1361 12.6189 28.5428 12.5833C27.6985 12.5476 27.1108 12.4822 26.78 12.3871C26.4491 12.292 26.1467 12.1433 25.8729 11.9412C25.291 11.525 25 10.7581 25 9.64035V8.80206C25 7.93405 25.2282 7.25628 25.6846 6.76877C26.1524 6.26936 26.7971 6.01966 27.6186 6.01966C27.7793 6.01966 27.9095 5.8894 27.9095 5.72871V4.55712C27.9095 4.35498 28.0065 4.25391 28.2005 4.25391H28.9878C29.1817 4.25391 29.2787 4.35498 29.2787 4.55712V5.93409C29.2787 5.98135 29.317 6.01966 29.3643 6.01966C30.1402 6.01966 30.7506 6.26936 31.1956 6.76877C31.652 7.26818 31.8802 7.94594 31.8802 8.80206V9.19445C31.8802 9.40848 31.7832 9.5155 31.5892 9.5155H30.511C30.3056 9.5155 30.2029 9.40848 30.2029 9.19445V8.96259C30.2029 8.46318 30.0945 8.10646 29.8777 7.89243C29.6724 7.66651 29.3244 7.55355 28.8337 7.55355H28.0465C27.5444 7.55355 27.1907 7.67246 26.9853 7.91027C26.78 8.13619 26.6773 8.52858 26.6773 9.08744V9.69386C26.6773 10.1457 26.8199 10.4608 27.1051 10.6392C27.4018 10.8175 27.8525 10.9245 28.4572 10.9602L29.3301 10.9959C30.1288 11.0434 30.7734 11.2813 31.2641 11.7093C31.7547 12.1255 32 12.8449 32 13.8675V14.7236C32 15.5916 31.7604 16.2753 31.2812 16.7747C30.8134 17.2622 30.1744 17.506 29.3643 17.506C29.317 17.506 29.2787 17.5443 29.2787 17.5916V18.9507C29.2787 19.1528 29.1817 19.2539 28.9878 19.2539Z" fill="#060F42" stroke="#060F42" stroke-width="0.5"/>
<path d="M25.2815 42.6133H9.92969C9.3774 42.6133 8.92969 43.061 8.92969 43.6133V47.7463C8.92969 48.2985 9.3774 48.7463 9.92969 48.7463H25.2815C25.8338 48.7463 26.2815 48.2985 26.2815 47.7463V43.6133C26.2815 43.061 25.8338 42.6133 25.2815 42.6133Z" fill="#01579B"/>
<path d="M45.6253 42.6133H30.2734C29.7212 42.6133 29.2734 43.061 29.2734 43.6133V47.7463C29.2734 48.2985 29.7212 48.7463 30.2734 48.7463H45.6253C46.1776 48.7463 46.6253 48.2985 46.6253 47.7463V43.6133C46.6253 43.061 46.1776 42.6133 45.6253 42.6133Z" fill="#01579B"/>
</svg>
