<svg width="14" height="14" viewBox="0 0 14 14" fill="none" xmlns="http://www.w3.org/2000/svg">
<path d="M13.3489 3.43444L13.345 3.41859C13.0243 2.12236 11.5788 0.731484 10.2513 0.442125L10.2363 0.439031C8.08919 0.0294375 5.91208 0.0294375 3.76539 0.439031L3.74997 0.442125C2.42294 0.731484 0.977359 2.12245 0.656313 3.41859L0.65275 3.43444C0.256375 5.24461 0.256375 7.08042 0.65275 8.8906L0.656313 8.90644C0.963719 10.1473 2.30158 11.4743 3.57953 11.8393V13.2862C3.57953 13.8099 4.21773 14.0671 4.58064 13.6892L6.04666 12.1653C6.36466 12.1831 6.6828 12.193 7.00084 12.193C8.08164 12.193 9.16295 12.0908 10.2363 11.8861L10.2512 11.883C11.5787 11.5936 13.0243 10.2026 13.3449 8.90649L13.3488 8.89064C13.7452 7.08042 13.7452 5.2447 13.3489 3.43444ZM12.1887 8.62814C11.9746 9.47381 10.8771 10.5251 10.005 10.7194C8.86337 10.9365 7.71264 11.0293 6.56308 10.9974C6.5402 10.9968 6.51822 11.0057 6.50233 11.0221C6.33916 11.1895 5.43194 12.1209 5.43194 12.1209L4.29344 13.2894C4.21019 13.3763 4.06394 13.3171 4.06394 13.1974V10.8004C4.06394 10.7608 4.03567 10.7272 3.99677 10.7195C3.99653 10.7194 3.99634 10.7194 3.99611 10.7193C3.12405 10.5251 2.02689 9.47377 1.81244 8.6281C1.45567 6.99188 1.45567 5.33316 1.81244 3.69694C2.02689 2.85127 3.12405 1.79995 3.99611 1.6057C5.98998 1.22648 8.01161 1.22648 10.0051 1.6057C10.8775 1.79995 11.9747 2.85127 12.1887 3.69694C12.5459 5.3332 12.5459 6.99192 12.1887 8.62814Z" fill="white"/>
<path d="M8.89789 9.73467C8.76383 9.69393 8.63609 9.6666 8.51736 9.61743C7.28778 9.10729 6.15622 8.44917 5.25992 7.44037C4.7502 6.86671 4.35125 6.21904 4.01403 5.53363C3.85409 5.2086 3.71933 4.87087 3.58194 4.53524C3.45669 4.22924 3.64119 3.91312 3.83544 3.68249C4.01773 3.46607 4.25234 3.30051 4.50641 3.1784C4.70469 3.08315 4.90025 3.13809 5.04509 3.30613C5.35812 3.66951 5.64575 4.05145 5.87853 4.47267C6.02173 4.73174 5.98245 5.04843 5.72291 5.22473C5.65981 5.26757 5.60234 5.31792 5.54361 5.36629C5.49205 5.40871 5.44358 5.45156 5.40823 5.50898C5.34369 5.61403 5.34059 5.73801 5.38212 5.85224C5.70214 6.73167 6.24153 7.41557 7.12676 7.78396C7.26842 7.84289 7.41064 7.91146 7.57386 7.89248C7.84714 7.86056 7.93564 7.56075 8.12717 7.40414C8.31434 7.25109 8.55359 7.24907 8.7552 7.37667C8.9569 7.50435 9.15237 7.64132 9.34672 7.77984C9.5375 7.91578 9.72739 8.04867 9.90331 8.20368C10.0725 8.3527 10.1308 8.54817 10.0355 8.75034C9.86112 9.1207 9.6073 9.42871 9.24125 9.6254C9.13789 9.68081 9.01442 9.69876 8.89789 9.73467C9.01442 9.69876 8.76383 9.69393 8.89789 9.73467Z" fill="white"/>
<path d="M7.00468 2.75454C8.61292 2.79964 9.9339 3.86693 10.217 5.45693C10.2652 5.72787 10.2824 6.00481 10.3038 6.27982C10.3129 6.39547 10.2474 6.50534 10.1226 6.50689C9.99367 6.50843 9.93568 6.40053 9.92725 6.28498C9.9107 6.05614 9.89921 5.82622 9.86767 5.59934C9.70121 4.40126 8.7459 3.41009 7.5534 3.19742C7.37391 3.1654 7.19035 3.15701 7.00852 3.13793C6.89363 3.12589 6.74316 3.11895 6.71771 2.97607C6.69638 2.85631 6.79744 2.76096 6.91149 2.75482C6.94238 2.753 6.97355 2.75445 7.00468 2.75454C6.97355 2.75445 8.61301 2.79964 7.00468 2.75454Z" fill="white"/>
<path d="M9.4484 5.92361C9.44573 5.94372 9.44437 5.99093 9.43255 6.03536C9.3899 6.1968 9.14502 6.217 9.08873 6.05411C9.07199 6.00579 9.06951 5.95076 9.06941 5.89872C9.06885 5.55813 8.99483 5.21782 8.82304 4.92143C8.64646 4.61679 8.37665 4.3608 8.06029 4.20579C7.86894 4.11213 7.66208 4.05386 7.45236 4.01922C7.36072 4.00404 7.2681 3.99489 7.17599 3.98205C7.06438 3.96654 7.00475 3.89543 7.0101 3.78546C7.01502 3.68243 7.09035 3.60822 7.20266 3.61464C7.57171 3.63555 7.92824 3.71543 8.25641 3.88915C8.92363 4.24254 9.30482 4.80025 9.4161 5.54505C9.42112 5.57885 9.42918 5.61222 9.43176 5.64607C9.43804 5.7296 9.44202 5.81327 9.4484 5.92361C9.44202 5.81327 9.44573 5.94363 9.4484 5.92361Z" fill="white"/>
<path d="M8.44789 5.88454C8.31335 5.88697 8.24135 5.81244 8.22743 5.68916C8.21782 5.60319 8.21014 5.516 8.1896 5.43228C8.1492 5.26742 8.06159 5.11471 7.92293 5.01369C7.85749 4.96602 7.78329 4.93128 7.70562 4.90878C7.60694 4.88024 7.50438 4.88811 7.40599 4.86402C7.29907 4.83782 7.23991 4.75119 7.25674 4.65092C7.27202 4.55961 7.3608 4.48836 7.4606 4.49563C8.08413 4.54063 8.52978 4.86299 8.59339 5.59705C8.59793 5.64885 8.60318 5.70355 8.5917 5.75319C8.57192 5.83789 8.50911 5.88041 8.44789 5.88454C8.50911 5.88041 8.31331 5.88693 8.44789 5.88454Z" fill="white"/>
</svg>
