<svg width="50" height="50" viewBox="0 0 50 50" fill="none" xmlns="http://www.w3.org/2000/svg">
<path d="M38.4438 11.7094L37.9045 8.55073L42.9892 3.466C40.2157 2.23333 36.8259 2.69556 34.4376 5.08386C32.3575 7.16398 31.6641 10.1686 32.5116 12.711L12.7118 32.5107C10.0924 31.7403 7.16488 32.3566 5.08475 34.4367C2.7735 36.748 2.23421 40.2149 3.46688 42.9884L8.55163 37.9036L11.7103 38.4429L12.2496 41.6016L7.24191 46.6093C9.93837 47.7649 13.2512 47.2256 15.5624 44.9144C17.6425 42.8342 18.3359 39.8297 17.4884 37.2873L37.2882 17.4876C39.9076 18.258 42.8351 17.6416 44.9153 15.5615C47.1495 13.3273 47.7658 9.93747 46.6102 7.24101L41.6025 12.2487L38.4438 11.7094Z" stroke="#060F42" stroke-width="2.3" stroke-miterlimit="10"/>
<path d="M10.7849 6.70251L10.4768 10.4005L6.70173 10.7857L2.92667 5.46982L5.46903 2.92745L10.7849 6.70251Z" fill="#01579B" stroke="#01579B" stroke-width="2.3" stroke-miterlimit="10"/>
<path d="M10.4772 10.3997L24.884 25.2688" stroke="#01579B" stroke-width="2.3" stroke-miterlimit="10"/>
<path d="M26.4637 23.382L23.1509 26.6948C22.7893 27.0564 22.7893 27.6428 23.1509 28.0045C23.5126 28.3661 24.099 28.3661 24.4606 28.0045L27.7734 24.6917C28.1351 24.33 28.1351 23.7436 27.7734 23.382C27.4118 23.0203 26.8254 23.0203 26.4637 23.382Z" fill="#FFCD1B"/>
<path d="M29.4023 25.5273L25.297 29.6327C24.516 30.4137 24.516 31.68 25.297 32.4611L38.8785 46.0425C39.6595 46.8236 40.9258 46.8236 41.7069 46.0425L45.8122 41.9372C46.5933 41.1561 46.5933 39.8898 45.8122 39.1088L32.2308 25.5273C31.4497 24.7463 30.1834 24.7463 29.4023 25.5273Z" fill="#FFCD1B"/>
<path d="M28.5704 23.2812L23.0509 28.8007C22.6603 29.1912 22.6603 29.8244 23.0509 30.2149L23.1775 30.3415C23.568 30.7321 24.2012 30.7321 24.5917 30.3415L30.1112 24.822C30.5017 24.4315 30.5017 23.7983 30.1112 23.4078L29.9846 23.2812C29.5941 22.8906 28.9609 22.8906 28.5704 23.2812Z" fill="#060F42"/>
<path d="M27.4258 29.9688L41.6014 44.1444" stroke="#060F42" stroke-width="2.3" stroke-miterlimit="10"/>
<path d="M29.7383 27.6582L43.9139 41.8339" stroke="#060F42" stroke-width="2.3" stroke-miterlimit="10"/>
</svg>
