<svg width="60" height="45" viewBox="0 0 60 45" fill="none" xmlns="http://www.w3.org/2000/svg">
<g clip-path="url(#clip0_19831_8990)">
<path d="M58.8948 24.9296C59.505 27.0518 58.28 29.2671 56.158 29.8785L23.3561 39.3299C22.2173 39.658 20.9917 39.4643 20.0097 38.801L8.61953 31.1073C7.02209 30.0282 6.4215 27.9633 7.19101 26.1959L12.693 13.5586C13.1691 12.465 14.1083 11.641 15.2545 11.3112L48.0996 1.86194C50.2228 1.2511 52.4392 2.47735 53.0497 4.6007L58.8948 24.9296Z" fill="#01579B"/>
<path d="M57.9857 39.8156C57.9857 42.0248 56.1948 43.8156 53.9857 43.8156H19.8789C18.6918 43.8156 17.566 43.2883 16.806 42.3764L7.9929 31.8006C6.75868 30.3195 6.75653 28.1688 7.9878 26.6853L16.8058 16.0606C17.5658 15.145 18.6939 14.6152 19.8838 14.6152H53.9857C56.1948 14.6152 57.9857 16.4061 57.9857 18.6152V39.8156Z" fill="white"/>
<path d="M59.2225 41.0525C59.194 43.2412 57.4117 45.0006 55.2228 45.0006H19.2912C18.102 45.0006 16.9744 44.4715 16.2145 43.5568L6.45277 31.8074C5.21953 30.323 5.22192 28.1698 6.45845 26.6882L16.274 14.9272C17.034 14.0166 18.1589 13.4902 19.345 13.4902H55.2304C57.4396 13.4902 59.2304 15.2811 59.2304 17.4902V40.4399L59.2225 41.0525ZM17.3399 41.1895C18.0999 42.103 19.2267 42.6314 20.415 42.6314H52.802C55.0111 42.6314 56.802 40.8405 56.802 38.6314V19.8002C56.802 17.5911 55.0111 15.8002 52.802 15.8002H20.4203C19.229 15.8002 18.0996 16.3313 17.3397 17.2488L9.52189 26.6884C8.29401 28.171 8.29634 30.3179 9.52743 31.7978L17.3399 41.1895Z" fill="#060F42"/>
<path d="M22.6233 33.4517C24.9458 33.4517 26.8286 31.5689 26.8286 29.2463C26.8286 26.9238 24.9458 25.041 22.6233 25.041C20.3008 25.041 18.418 26.9238 18.418 29.2463C18.418 31.5689 20.3008 33.4517 22.6233 33.4517Z" fill="#01579B"/>
<path d="M22.6243 34.5767C19.6628 34.5767 17.2344 32.1483 17.2344 29.1868C17.2344 26.2253 19.6628 23.7969 22.6243 23.7969C25.5858 23.7969 28.0142 26.2253 28.0142 29.1868C28.0142 32.1483 25.5858 34.5767 22.6243 34.5767ZM22.6243 26.2253C20.9659 26.2253 19.6036 27.5876 19.6036 29.246C19.6036 30.9045 20.9659 32.2668 22.6243 32.2668C24.2827 32.2668 25.645 30.9045 25.645 29.246C25.645 27.5876 24.2827 26.2253 22.6243 26.2253Z" fill="#060F42"/>
<path d="M21.4413 28.0605H1.1846C0.530364 28.0605 0 28.5909 0 29.2451C0 29.8994 0.530365 30.4297 1.1846 30.4297H21.4413C22.0955 30.4297 22.6259 29.8994 22.6259 29.2451C22.6259 28.5909 22.0955 28.0605 21.4413 28.0605Z" fill="#060F42"/>
<path d="M42.527 38.308C47.5319 38.308 51.5892 34.2507 51.5892 29.2458C51.5892 24.2409 47.5319 20.1836 42.527 20.1836C37.5221 20.1836 33.4648 24.2409 33.4648 29.2458C33.4648 34.2507 37.5221 38.308 42.527 38.308Z" fill="#FFCD1B"/>
<path d="M42.5291 21.1309L45.1352 26.4616L50.999 27.2908L46.7345 31.4369L47.7414 37.3006L42.5291 34.5168L37.2576 37.3006L38.2646 31.4369L34 27.2908L39.8638 26.4616L42.5291 21.1309Z" fill="white"/>
<path d="M49.0104 37.439C49.1454 38.2557 48.2864 38.8734 47.5552 38.4855L42.9971 36.0678C42.704 35.9123 42.353 35.9123 42.0599 36.0678L37.5162 38.478C36.7823 38.8672 35.9213 38.2438 36.062 37.4251L36.9312 32.368C36.9869 32.0441 36.8799 31.7136 36.6451 31.4838L32.9649 27.8828C32.3716 27.3023 32.703 26.2934 33.525 26.1778L38.5708 25.4682C38.8977 25.4222 39.1808 25.2179 39.3275 24.9221L41.6325 20.2722C41.9999 19.5311 43.0571 19.5311 43.4245 20.2722L45.7314 24.9258C45.877 25.2196 46.1573 25.4232 46.4816 25.471L51.6096 26.2263C52.4278 26.3468 52.7544 27.352 52.1633 27.9304L48.4683 31.5459C48.235 31.7741 48.1278 32.1018 48.1811 32.4238L49.0104 37.439ZM42.0627 33.4535C42.3544 33.303 42.7014 33.3052 42.9912 33.4594L44.3953 34.2067C45.1299 34.5977 45.9929 33.9726 45.8503 33.1526L45.58 31.5986C45.5237 31.2744 45.6303 30.9433 45.8653 30.713L47.0085 29.5927C47.5998 29.0133 47.2713 28.0075 46.452 27.8888L44.8859 27.6618C44.5596 27.6145 44.2776 27.4095 44.1321 27.1137L43.4258 25.6782C43.0593 24.9336 41.9977 24.9336 41.6312 25.6782L40.9249 27.1137C40.7794 27.4095 40.4974 27.6145 40.1711 27.6618L38.605 27.8888C37.7857 28.0075 37.4573 29.0133 38.0485 29.5927L39.1905 30.7119C39.4262 30.9428 39.5327 31.275 39.4754 31.5999L39.2072 33.12C39.0633 33.9349 39.9152 34.5619 40.6506 34.1824L42.0627 33.4535Z" fill="#060F42"/>
</g>
<defs>
<clipPath id="clip0_19831_8990">
<rect width="60" height="44.2448" fill="white" transform="translate(0 0.755859)"/>
</clipPath>
</defs>
</svg>
