<svg width="18" height="25" viewBox="0 0 18 25" fill="none" xmlns="http://www.w3.org/2000/svg">
<path d="M3.99922 1.20117H13.9992C15.1992 1.20117 16.2992 2.20117 16.2992 3.50117V19.5012C16.2992 20.7012 15.2992 21.8012 13.9992 21.8012H3.99922C2.79922 21.8012 1.69922 20.8012 1.69922 19.5012V3.40117C1.79922 2.20117 2.79922 1.20117 3.99922 1.20117Z" stroke="#060F42" stroke-width="1.5"/>
<path d="M8.99922 11.2012C10.7992 11.2012 12.2992 12.7012 12.2992 14.5012C12.2992 16.3012 10.7992 17.8012 8.99922 17.8012C7.19922 17.8012 5.69922 16.3012 5.69922 14.5012C5.79922 12.6012 7.19922 11.2012 8.99922 11.2012Z" stroke="#060F42" stroke-width="1.5"/>
<path d="M8.99922 4.20117C10.1992 4.20117 11.2992 5.20117 11.2992 6.50117C11.2992 7.70117 10.2992 8.80117 8.99922 8.80117C7.79922 8.80117 6.69922 7.80117 6.69922 6.50117C6.79922 5.20117 7.79922 4.20117 8.99922 4.20117Z" stroke="#060F42" stroke-width="1.5"/>
<path d="M14.4008 21.8047H10.8008V22.4011C10.8008 23.1011 11.4008 23.7011 12.1008 23.7011H13.1008C13.8008 23.7011 14.4008 23.1011 14.4008 22.4011V21.8047ZM14.4008 21.8047C14.2008 21.8047 14.5008 21.8047 14.4008 21.8047Z" stroke="#060F42" stroke-width="1.5"/>
<path d="M7.6 21.8008H4V22.3972C4 23.0972 4.6 23.6972 5.3 23.6972H6.3C7 23.6972 7.6 23.0972 7.6 22.3972V21.8008ZM7.6 21.8008C7.4 21.8008 7.7 21.8008 7.6 21.8008Z" stroke="#060F42" stroke-width="1.5"/>
</svg>
