<svg width="32" height="32" viewBox="0 0 32 32" fill="none" xmlns="http://www.w3.org/2000/svg">
<path d="M24.25 12.4706C24.25 13.2671 23.9256 14.3694 23.3323 15.6806C22.7481 16.9718 21.9401 18.3874 21.0543 19.7852C19.2836 22.5795 17.2404 25.2432 16.165 26.6003C16.0762 26.7123 15.9238 26.7123 15.835 26.6003C14.7596 25.2432 12.7164 22.5795 10.9457 19.7852C10.0599 18.3874 9.25185 16.9718 8.66766 15.6806C8.07443 14.3694 7.75 13.2671 7.75 12.4706C7.75 8.24881 11.4002 4.75 16 4.75C20.5998 4.75 24.25 8.24881 24.25 12.4706Z" stroke="white" stroke-width="1.5"/>
<circle cx="16" cy="12" r="3.25" stroke="white" stroke-width="1.5"/>
</svg>
