<svg width="32" height="32" viewBox="0 0 32 32" fill="none" xmlns="http://www.w3.org/2000/svg">
<g clip-path="url(#clip0_1381_101594)">
<path d="M26.8667 17.9339C26.8518 17.889 26.8337 17.8453 26.8125 17.8029C26.7853 17.7486 26.7582 17.6943 26.731 17.64C26.6316 17.4411 26.6055 17.2152 26.6313 16.9943C26.6665 16.6935 26.6665 16.4151 26.6665 16.0887C26.6665 14.6665 26.3998 13.3332 25.8665 12.0887C25.3332 10.8443 24.5332 9.68872 23.5554 8.71094C22.5776 7.73316 21.422 6.93316 20.0887 6.39983C18.8443 5.86649 17.422 5.59983 15.9998 5.59983C15.8164 5.59983 15.591 5.59983 15.3813 5.59983C15.2042 5.59983 15.0311 5.55122 14.8746 5.4685C13.8741 4.93989 12.7974 4.71094 11.6443 4.71094C9.7776 4.71094 7.99983 5.42205 6.66649 6.66649C5.42205 7.99983 4.71094 9.68872 4.71094 11.5554C4.71094 12.5848 4.92255 13.5436 5.34578 14.4319C5.4467 14.6438 5.48165 14.8811 5.45674 15.1144C5.42205 15.4392 5.42205 15.7639 5.42205 16.0887C5.42205 17.5109 5.68872 18.8443 6.22205 20.0887C6.75538 21.3332 7.55538 22.4887 8.53316 23.4665C9.51094 24.4443 10.6665 25.2443 11.9998 25.7776C13.2443 26.3109 14.6665 26.5776 16.0887 26.5776C16.3161 26.5776 16.5435 26.5776 16.7709 26.5544C17.0206 26.5288 17.2762 26.5587 17.504 26.6642C18.4023 27.0805 19.4233 27.2887 20.4443 27.2887C21.3332 27.2887 22.222 27.1109 23.1109 26.7554C23.9109 26.3998 24.7109 25.8665 25.3332 25.2443C25.9554 24.622 26.4887 23.822 26.8443 23.022C27.1998 22.222 27.3776 21.3332 27.3776 20.3554C27.3776 19.5778 27.1257 18.7162 26.8667 17.9339Z" stroke="white" stroke-width="1.5"/>
<path d="M13.2435 15.7338C12.799 15.4671 12.5324 15.1116 12.2657 14.6671C11.999 14.2227 11.9102 13.7782 11.9102 13.2449C11.9102 12.6227 12.0879 12.0005 12.5324 11.556C12.9768 11.1116 13.5102 10.756 14.1324 10.4893C14.7546 10.2227 15.4657 10.1338 16.1768 10.1338C16.6213 10.1338 17.0657 10.1338 17.5102 10.2227C17.8657 10.3116 18.1324 10.3116 18.4879 10.4893C18.7546 10.5782 19.0213 10.756 19.199 10.9338C19.3768 11.1116 19.4657 11.3782 19.4657 11.556C19.4657 11.6449 19.4657 11.8227 19.3768 11.9116C19.3768 12.0005 19.2879 12.0893 19.199 12.1782C19.1102 12.2671 19.0213 12.356 18.9324 12.356C18.8435 12.356 18.7546 12.4449 18.5768 12.4449C18.399 12.4449 18.3102 12.4449 18.1324 12.356C17.7768 12.1782 17.4213 12.0893 17.0657 12.0005C16.7102 11.9116 16.3546 11.9116 15.999 11.9116C15.5546 11.9116 15.1102 12.0005 14.6657 12.2671C14.4879 12.356 14.399 12.5338 14.3102 12.7116C14.2213 12.8893 14.1324 13.0671 14.2213 13.2449C14.2213 13.5116 14.3102 13.7782 14.4879 13.956C14.6657 14.1338 14.9324 14.3116 15.199 14.4893C15.4657 14.6671 15.999 14.8449 16.5324 15.1116C16.6213 15.1116 16.6213 15.2005 16.7102 15.2005C17.3324 15.4671 17.8657 15.7338 18.399 16.0893C18.8435 16.356 19.199 16.7116 19.4657 17.156C19.7324 17.6005 19.8213 18.1338 19.8213 18.6671C19.8213 19.2893 19.6435 19.9116 19.2879 20.4449C18.9324 20.9782 18.399 21.3338 17.8657 21.5116C17.1546 21.7782 16.4435 21.8671 15.6435 21.8671C14.6657 21.8671 13.599 21.6893 12.7102 21.3338C12.4435 21.2449 12.2657 21.0671 12.0879 20.8893C11.999 20.4449 11.9102 20.1782 11.9102 20.0005C11.9102 19.9116 11.9102 19.7338 11.999 19.6449C12.0879 19.556 12.0879 19.4671 12.1768 19.3782C12.3546 19.1116 12.6213 19.1116 12.8879 19.1116C13.1546 19.1116 13.4213 19.2005 13.6879 19.2893C13.9546 19.4671 14.2213 19.556 14.399 19.6449C14.5768 19.7338 14.8435 19.8227 15.0213 19.8227C15.2879 19.9116 15.5546 19.9116 15.8213 19.9116C16.2657 19.9116 16.799 19.8227 17.1546 19.556C17.3324 19.4671 17.4213 19.2893 17.5102 19.1116C17.599 18.9338 17.599 18.756 17.599 18.5782C17.599 18.3116 17.5102 18.0449 17.3324 17.8671C17.0657 17.6005 16.799 17.4227 16.5324 17.2449C16.1768 17.0671 15.6435 16.8005 15.0213 16.5338C14.3102 16.356 13.7768 16.0893 13.2435 15.7338Z" fill="white"/>
</g>
<defs>
<clipPath id="clip0_1381_101594">
<rect width="24" height="24" fill="white" transform="translate(4 4)"/>
</clipPath>
</defs>
</svg>
