<svg width="24" height="24" viewBox="0 0 24 24" fill="none" xmlns="http://www.w3.org/2000/svg">
<path d="M17.9864 6.25917C18.4648 6.07252 18.9594 6.49111 18.8543 6.9937L16.7089 17.2491C16.6086 17.7299 16.0438 17.9464 15.6478 17.6555L12.4091 15.2782L10.7582 16.9638C10.4681 17.2596 9.96786 17.1392 9.84341 16.7448L8.65231 12.9638L5.45956 12.0208C5.04017 11.8971 5.01594 11.3137 5.42239 11.1545L17.9864 6.25917ZM16.4115 8.53472C16.5513 8.41106 16.3888 8.19291 16.2305 8.29148L9.33913 12.5654C9.21791 12.6405 9.16217 12.7884 9.20497 12.925L10.1448 17.0519C10.1634 17.1149 10.2538 17.106 10.262 17.0406L10.472 13.8955C10.4801 13.8179 10.5173 13.7468 10.5755 13.6951L16.4115 8.53472Z" fill="white"/>
<path d="M16.2312 8.29146C16.3895 8.19288 16.552 8.41104 16.4122 8.53469L10.5763 13.6951C10.5181 13.7468 10.4809 13.8179 10.4728 13.8955L10.2627 17.0405C10.2546 17.106 10.1641 17.1149 10.1455 17.0518L9.20573 12.925C9.16288 12.7884 9.21866 12.6405 9.33988 12.5654L16.2312 8.29146Z" fill="#9EC2E5"/>
<path d="M10.1788 17.0947C10.0268 17.0405 9.89835 16.9193 9.84341 16.7447L8.65232 12.9637L5.45956 12.0207C5.04017 11.897 5.01594 11.3136 5.42239 11.1544L17.9864 6.25912C18.2951 6.1387 18.6111 6.27042 18.767 6.5145C18.7379 6.47006 18.7032 6.42886 18.6644 6.39248L10.1407 13.3508V13.6555L10.0939 13.6215L10.1407 15.54V17.0785C10.1529 17.0842 10.1658 17.089 10.1787 17.0931V17.0947H10.1788Z" fill="white"/>
<path d="M10.7167 17.0029C10.702 17.0152 10.6873 17.0266 10.6719 17.0371V17.0363C10.6874 17.0257 10.702 17.0152 10.7167 17.0029Z" fill="#DADDE0"/>
<path d="M10.5762 17.0884C10.6096 17.0746 10.6413 17.0575 10.6723 17.0371C10.6413 17.0574 10.6087 17.0745 10.5762 17.0884Z" fill="#DADDE0"/>
<path d="M10.3125 17.1249C10.3836 17.1321 10.4555 17.1265 10.5258 17.1055C10.4749 17.1216 10.4224 17.1289 10.3699 17.1289C10.3537 17.1289 10.3375 17.1281 10.3222 17.1265C10.319 17.1265 10.3157 17.1265 10.3125 17.1249Z" fill="#DADDE0"/>
<path d="M10.3703 17.1284C10.354 17.1284 10.3377 17.1276 10.3223 17.126C10.3377 17.1276 10.354 17.1284 10.3703 17.1284Z" fill="white"/>
<path d="M10.3122 17.124C10.3154 17.1256 10.3187 17.1256 10.3219 17.1256C10.3049 17.1248 10.2896 17.1224 10.2734 17.1191C10.2863 17.1216 10.2993 17.1232 10.3122 17.124Z" fill="white"/>
<path d="M10.3108 17.1233C10.2979 17.1225 10.2849 17.1209 10.272 17.1185C10.2664 17.1177 10.2607 17.1169 10.2559 17.1152C10.2736 17.1185 10.2922 17.1217 10.3108 17.1233Z" fill="#DADDE0"/>
<path d="M10.1953 17.0986C10.2131 17.1043 10.2309 17.1091 10.2487 17.114C10.2414 17.1124 10.2341 17.1108 10.2269 17.1092C10.2236 17.1084 10.2204 17.1076 10.218 17.1059C10.2106 17.1043 10.2026 17.1019 10.1953 17.0986Z" fill="#DADDE0"/>
<path d="M10.2266 17.1094C10.2329 17.1108 10.2392 17.1122 10.2456 17.1136C10.2392 17.1129 10.2329 17.1115 10.2266 17.1094Z" fill="white"/>
<path d="M10.1955 17.0988C10.2028 17.102 10.211 17.1045 10.2183 17.1061C10.2061 17.1037 10.1939 17.0996 10.1816 17.0947C10.1865 17.0963 10.1906 17.098 10.1955 17.0988Z" fill="white"/>
<path d="M10.1954 17.0987C10.191 17.098 10.1872 17.0965 10.1827 17.095C10.182 17.0957 10.1804 17.095 10.1797 17.0943V17.0928C10.1849 17.0957 10.1902 17.0972 10.1954 17.0987Z" fill="#DADDE0"/>
<path d="M10.1406 15.54L10.1786 17.0931C10.1657 17.0891 10.1527 17.0842 10.1406 17.0786V15.54Z" fill="#D1D1D1"/>
<path d="M10.1406 13.655V15.5395L10.0938 13.6211L10.1406 13.655Z" fill="#DADDE0"/>
<path d="M16.4122 8.53466L10.5763 13.6951C10.5181 13.7468 10.4809 13.8179 10.4728 13.8955L10.2631 17.0408C10.255 17.1062 10.1645 17.1151 10.1451 17.0521L9.20573 12.925C9.16288 12.7884 9.21866 12.6405 9.33988 12.5654L16.2312 8.29148C16.3896 8.19285 16.552 8.41105 16.4122 8.53466Z" fill="white"/>
</svg>
