<svg width="52" height="60" viewBox="0 0 52 60" fill="none" xmlns="http://www.w3.org/2000/svg">
<g clip-path="url(#clip0_19831_9007)">
<path d="M37.2837 56.7873C37.2837 58.2684 35.7299 59.2356 34.4009 58.5819L26.8538 54.8696C26.2958 54.5951 25.6419 54.5958 25.0844 54.8715L17.6015 58.5723C16.2722 59.2297 14.7148 58.2625 14.7148 56.7796V33.0825C14.7148 32.3673 15.0968 31.7065 15.7165 31.3495L24.973 26.0169C25.5895 25.6618 26.3483 25.6609 26.9657 26.0146L36.278 31.3503C36.9 31.7067 37.2837 32.3687 37.2837 33.0856V56.7873Z" fill="#01579B"/>
<path d="M25.9686 50.5805C24.8066 50.5805 24.0114 49.7242 23.3387 48.9902C23.094 48.7456 22.6047 48.2563 22.4212 48.1951C22.2377 48.1951 21.6873 48.5009 21.3203 48.6844C20.5864 49.0514 19.8524 49.4795 19.0573 49.4795C18.8127 49.4795 18.568 49.4184 18.3845 49.3572C17.2836 48.9902 16.7943 47.9505 16.3662 47.0331C16.1827 46.6661 15.9381 46.1156 15.7546 45.9933C15.7546 45.9933 15.6934 45.9933 15.5711 45.9933C15.2653 45.9933 14.8983 46.0545 14.5313 46.1156C14.042 46.1768 13.5527 46.2991 13.0634 46.2991C12.4518 46.2991 11.9014 46.1768 11.4732 45.8098C10.5558 45.137 10.3723 43.975 10.25 42.9964C10.1888 42.6294 10.1277 41.9566 10.0053 41.7731C9.88301 41.6508 9.21022 41.5896 8.84325 41.5285C7.86466 41.4061 6.70258 41.2227 6.02979 40.3052C5.35701 39.3878 5.5405 38.2869 5.72398 37.2471C5.78514 36.8802 5.90747 36.2074 5.84631 36.0239C5.72398 35.9016 5.17352 35.5957 4.80655 35.4123C3.95028 34.9841 2.84936 34.4948 2.48239 33.3939C2.11542 32.3542 2.66588 31.3144 3.15517 30.4581C3.33866 30.0912 3.64447 29.5407 3.64447 29.2961C3.58331 29.1126 3.15517 28.6844 2.84936 28.4398C2.17658 27.8893 1.32031 27.0331 1.32031 25.871C1.32031 24.7089 2.17658 23.9138 2.91053 23.241C3.21634 22.9964 3.64447 22.5071 3.70563 22.3236C3.70563 22.1401 3.39982 21.5896 3.21634 21.2227C2.72704 20.3052 2.17658 19.3266 2.54355 18.2869C2.91053 17.186 3.95028 16.6967 4.86771 16.2685C5.23469 16.085 5.78514 15.8404 5.90747 15.6569C5.96863 15.4734 5.84631 14.8618 5.78514 14.4337C5.60166 13.4551 5.41817 12.293 6.09096 11.3756C6.76374 10.4581 7.92582 10.2746 8.90441 10.1523C9.27138 10.0912 9.94417 10.03 10.1277 9.90767C10.25 9.78535 10.3111 9.11257 10.3723 8.74559C10.4946 7.767 10.6781 6.60492 11.5955 5.93214C11.9014 5.62633 12.4518 5.504 13.0634 5.504C13.5527 5.504 14.042 5.56516 14.5313 5.68749C14.8983 5.74865 15.2653 5.80981 15.5711 5.80981C15.6934 5.80981 15.7546 5.80981 15.7546 5.80981C15.8769 5.68749 16.1827 5.13703 16.3662 4.77006C16.7943 3.91379 17.2836 2.81287 18.3845 2.4459C18.6292 2.38474 18.8127 2.32357 19.0573 2.32357C19.8524 2.32357 20.5864 2.69055 21.3203 3.11868C21.6873 3.30217 22.2377 3.60798 22.4824 3.60798C22.6659 3.54682 23.094 3.11868 23.3387 2.81287C24.0114 2.07893 24.8677 1.22266 25.9686 1.22266C27.1307 1.22266 27.9258 2.07893 28.5986 2.81287C28.8433 3.11868 29.3325 3.54682 29.516 3.60798C29.6995 3.60798 30.25 3.30217 30.617 3.11868C31.3509 2.75171 32.0848 2.32357 32.8799 2.32357C33.1246 2.32357 33.3692 2.38474 33.5527 2.4459C34.6536 2.81287 35.1429 3.85263 35.5711 4.77006C35.7546 5.13703 35.9992 5.68749 36.1827 5.80981C36.1827 5.80981 36.2439 5.80981 36.3662 5.80981C36.672 5.80981 37.039 5.74865 37.4059 5.68749C37.8952 5.56516 38.4457 5.504 38.935 5.504C39.5466 5.504 40.0971 5.62633 40.5252 5.9933C41.4426 6.66608 41.6261 7.82816 41.7484 8.80675C41.8096 9.17373 41.8708 9.84651 41.9931 10.03C42.1154 10.1523 42.7882 10.2135 43.1552 10.2746C44.1338 10.397 45.2959 10.5805 45.9686 11.4979C46.6414 12.4153 46.4579 13.5162 46.2744 14.556C46.2133 14.923 46.091 15.5957 46.1521 15.7792C46.2744 15.9016 46.8249 16.2074 47.1919 16.3909C48.0481 16.819 49.1491 17.3083 49.516 18.4092C49.883 19.449 49.3325 20.4887 48.8433 21.345C48.6598 21.712 48.354 22.2624 48.354 22.5071C48.4151 22.6905 48.8433 23.1187 49.1491 23.3633C49.8218 24.0361 50.7393 24.8924 50.7393 25.9933C50.7393 27.1554 49.883 27.9505 49.1491 28.6233C48.8433 28.8679 48.4151 29.3572 48.354 29.5407C48.354 29.7242 48.6598 30.2746 48.8433 30.6416C49.3325 31.559 49.883 32.5376 49.516 33.5774C49.1491 34.6783 48.1093 35.1676 47.1919 35.5957C46.8249 35.7792 46.2744 36.0239 46.1521 36.2074C46.091 36.3909 46.2133 37.0025 46.2744 37.4306C46.4579 38.4092 46.6414 39.5713 45.9686 40.4887C45.2959 41.4061 44.1338 41.5896 43.1552 41.712C42.7882 41.7731 42.1154 41.8343 41.9319 41.9566C41.8096 42.0789 41.7485 42.7517 41.6873 43.1187C41.565 44.0973 41.3815 45.2594 40.464 45.9321C40.0359 46.2379 39.5466 46.4214 38.8738 46.4214C38.3845 46.4214 37.8952 46.3603 37.4059 46.2379C37.039 46.1768 36.672 46.1156 36.3662 46.1156C36.2439 46.1156 36.1827 46.1156 36.1827 46.1156C36.0604 46.2379 35.7546 46.7884 35.5711 47.1554C35.1429 48.0117 34.6536 49.1126 33.5527 49.4795C33.3081 49.5407 33.1246 49.6019 32.8799 49.6019C32.0848 49.6019 31.3509 49.2349 30.617 48.8068C30.25 48.6233 29.6995 48.3175 29.4549 48.3175C29.2714 48.3786 28.8433 48.8068 28.5986 49.1126C27.987 49.663 27.1307 50.5805 25.9686 50.5805Z" fill="white"/>
<path d="M25.9692 2.44648C27.1313 2.44648 28.171 4.58716 29.3331 4.77064C29.3943 4.77064 29.4555 4.77064 29.5166 4.77064C30.5564 4.77064 31.9019 3.48624 32.9417 3.48624C33.064 3.48624 33.1863 3.48624 33.2475 3.5474C34.3484 3.91437 34.6542 6.2997 35.694 6.78899C35.8775 6.91132 36.1833 6.91132 36.4279 6.91132C37.223 6.91132 38.1405 6.6055 38.9356 6.6055C39.2414 6.6055 39.5472 6.66667 39.7918 6.85015C40.7704 7.52294 40.2811 9.90826 41.1374 10.7034C41.9937 11.5596 44.3178 11.0703 44.9906 12.0489C45.6634 12.9664 44.5013 15.107 45.0518 16.1468C45.6022 17.1865 47.9264 17.4924 48.2934 18.5933C48.6603 19.6942 46.8866 21.3456 47.0701 22.5076C47.2536 23.6697 49.3943 24.6483 49.3943 25.8716C49.3943 27.0948 47.2536 28.0734 47.0701 29.2355C46.8866 30.3976 48.6603 32.0489 48.2934 33.1498C47.9264 34.2508 45.5411 34.5566 45.0518 35.5963C44.5013 36.6361 45.6634 38.7156 44.9906 39.6942C44.3178 40.6728 41.9325 40.1835 41.1374 41.0398C40.2811 41.896 40.7704 44.2202 39.7918 44.893C39.5472 45.0765 39.2414 45.1376 38.9356 45.1376C38.2016 45.1376 37.223 44.8318 36.4279 44.8318C36.1221 44.8318 35.8775 44.893 35.694 44.9541C34.6542 45.5046 34.3484 47.8288 33.2475 48.1957C33.1252 48.2569 33.064 48.2569 32.9417 48.2569C31.9019 48.2569 30.5564 46.9725 29.5166 46.9725C29.4555 46.9725 29.3943 46.9725 29.3331 46.9725C28.171 47.156 27.1925 49.2966 25.9692 49.2966C24.746 49.2966 23.7674 47.156 22.6053 46.9725C22.5441 46.9725 22.483 46.9725 22.4218 46.9725C21.3821 46.9725 20.0365 48.2569 18.9967 48.2569C18.8744 48.2569 18.7521 48.2569 18.6909 48.1957C17.59 47.8288 17.2842 45.4434 16.2444 44.9541C16.061 44.8318 15.7551 44.8318 15.5105 44.8318C14.7154 44.8318 13.798 45.1376 13.0029 45.1376C12.697 45.1376 12.3912 45.0765 12.1466 44.893C11.168 44.2202 11.6573 41.8349 10.801 41.0398C9.94475 40.1835 7.62059 40.6728 6.94781 39.6942C6.27503 38.7768 7.43711 36.6361 6.88665 35.5963C6.33619 34.5566 3.95087 34.2508 3.64506 33.1498C3.27808 32.0489 5.05178 30.3976 4.8683 29.2355C4.68481 28.0734 2.54414 27.0948 2.54414 25.8716C2.54414 24.7095 4.68481 23.6697 4.8683 22.5076C5.05178 21.3456 3.27808 19.6942 3.64506 18.5933C4.01203 17.4924 6.39735 17.1865 6.88665 16.1468C7.43711 15.107 6.27503 13.0275 6.94781 12.0489C7.62059 11.0703 10.0059 11.5596 10.801 10.7034C11.6573 9.8471 11.168 7.52294 12.1466 6.85015C12.3912 6.66667 12.697 6.6055 13.0029 6.6055C13.798 6.6055 14.7154 6.91132 15.5105 6.91132C15.8163 6.91132 16.061 6.85015 16.2444 6.78899C17.2842 6.23853 17.59 3.91437 18.6909 3.5474C18.8132 3.48624 18.8744 3.48624 18.9967 3.48624C20.0365 3.48624 21.3821 4.77064 22.4218 4.77064C22.483 4.77064 22.5441 4.77064 22.6053 4.77064C23.7674 4.58716 24.8071 2.44648 25.9692 2.44648ZM25.9692 0C24.3178 0 23.1558 1.16208 22.4218 1.95719C22.3607 2.01835 22.2995 2.14067 22.1772 2.20183C22.0548 2.14067 21.9325 2.07951 21.8714 2.01835C21.0762 1.59021 20.1588 1.10092 19.0579 1.10092C18.6909 1.10092 18.324 1.16208 17.957 1.2844C16.3668 1.7737 15.694 3.24159 15.2047 4.22018C15.1435 4.28135 15.0824 4.40367 15.0824 4.52599C14.96 4.52599 14.8377 4.46483 14.7154 4.46483C14.2261 4.34251 13.6756 4.28135 13.064 4.28135C12.1466 4.28135 11.4126 4.52599 10.7399 4.95413C9.39429 5.93272 9.2108 7.52294 9.02732 8.56269C9.02732 8.68502 8.96616 8.80734 8.96616 8.92966C8.84383 8.92966 8.72151 8.99083 8.59918 8.99083C7.55943 9.11315 5.96922 9.3578 4.99062 10.7034C4.01203 12.0489 4.31784 13.6391 4.50133 14.6789C4.50133 14.8012 4.56249 14.9235 4.56249 15.0459C4.44016 15.107 4.379 15.1682 4.25668 15.1682C3.27808 15.6575 1.81019 16.3303 1.3209 17.9205C0.831601 19.5107 1.56555 20.8563 2.05484 21.8349C2.116 21.9572 2.17717 22.0184 2.23833 22.1407C2.17717 22.2018 2.05484 22.3242 1.99368 22.3853C1.25974 23.1193 0.0976562 24.2202 0.0976562 25.8716C0.0976562 27.5229 1.25974 28.685 2.05484 29.419C2.116 29.4801 2.23833 29.5413 2.29949 29.6636C2.23833 29.7859 2.17717 29.9083 2.116 29.9694C1.56555 30.948 0.831601 32.2936 1.38206 33.8838C1.87136 35.474 3.33925 36.1468 4.31784 36.6361C4.379 36.6973 4.50133 36.7584 4.62365 36.8196C4.62365 36.9419 4.56249 37.0642 4.56249 37.1865C4.379 38.1651 4.07319 39.7554 5.05178 41.1009C6.03038 42.4465 7.62059 42.63 8.66035 42.8135C8.78267 42.8135 8.90499 42.8746 9.02732 42.8746C9.02732 42.9969 9.08848 43.1193 9.08848 43.2416C9.2108 44.2813 9.45545 45.8716 10.801 46.8502C11.4126 47.3395 12.2077 47.5229 13.1252 47.5229C13.7368 47.5229 14.2873 47.4006 14.7766 47.3395C14.8989 47.3395 15.0212 47.2783 15.1435 47.2783C15.2047 47.4006 15.2659 47.4618 15.2659 47.5841C15.7551 48.5627 16.4279 50.0306 18.0181 50.5199C18.3851 50.6422 18.7521 50.7034 19.1191 50.7034C20.22 50.7034 21.1986 50.2141 21.9325 49.7859C22.0548 49.7248 22.116 49.6636 22.2383 49.6025C22.2995 49.6636 22.4218 49.7859 22.483 49.8471C23.2169 50.6422 24.379 51.8043 26.0304 51.8043C27.6818 51.8043 28.8438 50.6422 29.5778 49.8471C29.6389 49.7859 29.7001 49.6636 29.8224 49.6025C29.9447 49.6636 30.0671 49.7248 30.1282 49.7859C30.9233 50.2141 31.8408 50.7034 32.9417 50.7034C33.3087 50.7034 33.6756 50.6422 34.0426 50.5199C35.6328 50.0306 36.3056 48.5627 36.7949 47.5841C36.8561 47.5229 36.9172 47.4006 36.9172 47.2783C37.0395 47.2783 37.1619 47.3395 37.2842 47.3395C37.7735 47.4006 38.3851 47.5229 38.9356 47.5229C39.853 47.5229 40.5869 47.2783 41.2597 46.8502C42.6053 45.8716 42.7888 44.2813 42.9723 43.2416C42.9723 43.1193 43.0334 42.9969 43.0334 42.8746C43.1558 42.8746 43.2781 42.8135 43.4004 42.8135C44.4402 42.6911 46.0304 42.4465 47.009 41.1009C47.9876 39.7554 47.6817 38.1651 47.4983 37.1254C47.4983 37.0031 47.4371 36.8807 47.4371 36.7584C47.5594 36.6973 47.6206 36.6361 47.7429 36.6361C48.7215 36.1468 50.1894 35.474 50.6787 33.8838C51.168 32.2936 50.434 30.948 49.9447 29.9694C49.8836 29.8471 49.8224 29.7859 49.7613 29.6636C49.8224 29.6024 49.9447 29.4801 50.0059 29.419C50.801 28.685 51.9631 27.5229 51.9631 25.8716C51.9631 24.2202 50.801 23.0581 50.0059 22.3242C49.9447 22.263 49.8224 22.2018 49.7613 22.0795C49.8224 21.9572 49.8836 21.8349 49.9447 21.7737C50.4952 20.7951 51.2291 19.4495 50.6787 17.8593C50.1894 16.2691 48.7215 15.5963 47.7429 15.107C47.6818 15.0459 47.5594 14.9847 47.4371 14.9847C47.4371 14.8624 47.4983 14.7401 47.4983 14.6177C47.6817 13.578 47.9876 11.9878 47.009 10.6422C46.0304 9.29664 44.4402 9.11315 43.4004 8.92966C43.2781 8.92966 43.1558 8.8685 43.0334 8.8685C43.0334 8.74618 42.9723 8.62385 42.9723 8.50153C42.8499 7.46177 42.6053 5.87156 41.2597 4.89297C40.6481 4.40367 39.853 4.22018 38.9356 4.22018C38.324 4.22018 37.7735 4.34251 37.2842 4.40367C37.1619 4.40367 37.0395 4.46483 36.9172 4.46483C36.8561 4.40367 36.7949 4.28135 36.7337 4.22018C36.2444 3.24159 35.5717 1.7737 33.9814 1.2844C33.6145 1.16208 33.2475 1.10092 32.8805 1.10092C31.7796 1.10092 30.801 1.59021 30.0671 2.01835C29.9447 2.07951 29.8836 2.14067 29.7613 2.20183C29.7001 2.14067 29.5778 2.01835 29.5166 1.95719C28.7827 1.16208 27.6818 0 25.9692 0Z" fill="#060F42"/>
<path d="M42.1776 25.8701C42.1776 34.8609 34.9605 42.078 25.9697 42.078C17.04 42.078 9.76172 34.7997 9.76172 25.8701C9.76172 16.9404 17.04 9.66211 25.9697 9.66211C34.9605 9.66211 42.1776 16.9404 42.1776 25.8701Z" fill="white"/>
<path d="M25.9703 43.3018C16.3678 43.3018 8.53906 35.4731 8.53906 25.8706C8.53906 16.2682 16.3678 8.43945 25.9703 8.43945C35.5727 8.43945 43.4014 16.2682 43.4014 25.8706C43.4014 35.4731 35.5727 43.3018 25.9703 43.3018ZM25.9703 10.8859C17.7134 10.8859 10.9855 17.6138 10.9855 25.8706C10.9855 34.1275 17.7134 40.8554 25.9703 40.8554C34.2271 40.8554 40.955 34.1275 40.955 25.8706C40.955 17.6138 34.2271 10.8859 25.9703 10.8859Z" fill="#060F42"/>
<path d="M25.0827 19.2852C25.4479 18.5464 26.4997 18.5416 26.8716 19.277L28.4282 22.3549C28.5738 22.6426 28.8491 22.8425 29.1678 22.8918L32.6089 23.4239C33.4247 23.5501 33.745 24.5543 33.1529 25.1295L30.6864 27.5255C30.4515 27.7537 30.3432 28.0824 30.3965 28.4055L30.9619 31.8334C31.0965 32.6493 30.2389 33.2667 29.5079 32.8802L26.4364 31.2562C26.1439 31.1015 25.794 31.1015 25.5015 31.2562L22.4527 32.8682C21.7175 33.2569 20.8567 32.6306 21.0003 31.8115L21.5963 28.4109C21.6534 28.0849 21.5455 27.7517 21.308 27.521L18.8461 25.1295C18.2541 24.5543 18.5744 23.5501 19.3901 23.4239L22.8255 22.8927C23.1474 22.8429 23.4249 22.6395 23.5692 22.3475L25.0827 19.2852Z" fill="#FFCD1B"/>
<path d="M32.5941 34.0142C32.736 34.8335 31.8742 35.458 31.1398 35.0681L26.5001 32.6045C26.2069 32.4488 25.8555 32.4488 25.5622 32.6045L20.9256 35.0665C20.1906 35.4567 19.3284 34.831 19.4715 34.0113L20.3736 28.8444C20.431 28.5159 20.3209 28.1805 20.0799 27.9499L16.265 24.299C15.6619 23.7219 15.9896 22.7036 16.816 22.5865L22.0167 21.8494C22.3468 21.8026 22.6319 21.5943 22.7769 21.294L25.0813 16.5206C25.443 15.7713 26.5083 15.7657 26.8778 16.5113L29.2223 21.2413C29.3687 21.5367 29.6514 21.741 29.9779 21.7873L35.1991 22.5273C36.0231 22.6441 36.3522 23.6575 35.754 24.2361L31.9773 27.8897C31.7393 28.1199 31.6307 28.4529 31.6872 28.7791L32.5941 34.0142ZM22.0314 24.2947C21.2133 24.415 20.8864 25.4198 21.4771 25.9984L22.6564 27.1536C22.8928 27.3852 22.9993 27.7186 22.941 28.0443L22.6636 29.5932C22.5164 30.4151 23.3817 31.0448 24.1185 30.6519L25.4994 29.9154C25.7935 29.7585 26.1465 29.7585 26.4406 29.9154L27.8546 30.6695C28.5854 31.0593 29.4461 30.4425 29.312 29.6251L29.0511 28.0365C28.9984 27.715 29.1054 27.3881 29.3381 27.1601L30.5279 25.9946C31.1179 25.4167 30.7926 24.4131 29.9758 24.2912L28.3844 24.0537C28.0598 24.0052 27.7796 23.8005 27.6347 23.506L26.9285 22.07C26.5622 21.3251 25.5002 21.3251 25.1338 22.07L24.4282 23.5047C24.283 23.8 24.0019 24.0049 23.6764 24.0528L22.0314 24.2947Z" fill="#060F42"/>
</g>
<defs>
<clipPath id="clip0_19831_9007">
<rect width="51.8043" height="60" fill="white" transform="translate(0.0976562)"/>
</clipPath>
</defs>
</svg>
