<svg width="46" height="46" viewBox="0 0 46 46" fill="none" xmlns="http://www.w3.org/2000/svg">
<path d="M22.9098 45.8197C22.6821 45.8197 22.4553 45.8156 22.229 45.809L26.9109 32.9415H33.3543C34.4853 32.9415 35.7268 32.0721 36.1136 31.0099L41.1932 17.0576C42.0242 14.7733 40.7158 12.9045 38.2851 12.9045H29.3462L21.8459 33.5144H21.8431L17.5911 45.1976C7.50338 42.7994 0 33.7313 0 22.9099C0 12.4005 7.07669 3.54476 16.7245 0.845753L12.3371 12.9045H12.3359L5.04217 32.9415L9.89756 32.9419L16.1003 15.9154H19.7493L13.5466 32.9419L18.4002 32.9428L24.1804 17.0576C25.012 14.7733 23.7035 12.9045 21.275 12.9045H17.1936L21.8801 0.0240765C22.2218 0.00890936 22.5647 0 22.9098 0C35.5626 0 45.8196 10.257 45.8196 22.9099C45.8196 35.5625 35.5626 45.8197 22.9098 45.8197ZM36.7715 15.9032H33.1234L28.0146 29.9204H31.6628L36.7715 15.9032Z" fill="#01579B"/>
</svg>
