<svg width="21" height="20" viewBox="0 0 21 20" fill="none" xmlns="http://www.w3.org/2000/svg">
<path d="M15.3733 1.75204C15.625 1.51361 15.9238 1.32448 16.2526 1.19545C16.5814 1.06641 16.9338 1 17.2897 1C17.6457 1 17.9981 1.06641 18.3269 1.19545C18.6557 1.32448 18.9545 1.51361 19.2062 1.75204C19.4579 1.99046 19.6575 2.27351 19.7937 2.58503C19.9299 2.89655 20 3.23043 20 3.56761C20 3.90479 19.9299 4.23868 19.7937 4.55019C19.6575 4.86171 19.4579 5.14476 19.2062 5.38319L6.27021 17.6383L1 19L2.43733 14.0072L15.3733 1.75204Z" stroke="#01579B" stroke-width="2" stroke-linecap="round" stroke-linejoin="round"/>
</svg>
