<svg width="39" height="16" viewBox="0 0 39 16" fill="none" xmlns="http://www.w3.org/2000/svg">
<path d="M18.457 7.82535V12.3823H17.0332V1.13347H20.8093C21.7201 1.11553 22.6044 1.46537 23.25 2.11124C24.5411 3.3312 24.6207 5.38541 23.4092 6.70405C23.3561 6.75788 23.3031 6.8117 23.25 6.86552C22.5868 7.50242 21.7732 7.82535 20.8093 7.82535H18.457ZM18.457 2.5149V6.44392H20.8446C21.3752 6.46186 21.8881 6.24657 22.2507 5.86084C22.9935 5.08042 22.9759 3.82457 22.2065 3.07106C21.8439 2.71225 21.3575 2.5149 20.8446 2.5149H18.457Z" fill="white"/>
<path d="M27.5561 4.43555C28.6085 4.43555 29.4398 4.7226 30.0499 5.28773C30.6601 5.85286 30.9608 6.64225 30.9608 7.63796V12.3833H29.5989V11.3158H29.537C28.9445 12.1949 28.1663 12.6344 27.1847 12.6344C26.3535 12.6344 25.646 12.3833 25.0889 11.8809C24.5406 11.4145 24.2311 10.7238 24.2488 9.99716C24.2488 9.1988 24.5494 8.57088 25.1419 8.09545C25.7344 7.62002 26.5303 7.38679 27.5208 7.38679C28.3697 7.38679 29.0595 7.54826 29.6078 7.85325V7.52135C29.6078 7.02798 29.3955 6.56152 29.0241 6.23859C28.6439 5.89771 28.1575 5.70934 27.6534 5.70934C26.8575 5.70934 26.2297 6.05021 25.7698 6.73196L24.5141 5.9336C25.1862 4.93789 26.2031 4.43555 27.5561 4.43555ZM25.7167 10.0241C25.7167 10.4008 25.8936 10.7507 26.1854 10.966C26.5038 11.2171 26.8929 11.3517 27.2908 11.3427C27.8922 11.3427 28.467 11.1005 28.8915 10.6699C29.3602 10.2214 29.5989 9.69217 29.5989 9.08219C29.1568 8.72337 28.5377 8.54397 27.7419 8.55294C27.167 8.55294 26.6807 8.69646 26.2916 8.97454C25.9113 9.25262 25.7167 9.60247 25.7167 10.0241Z" fill="white"/>
<path fill-rule="evenodd" clip-rule="evenodd" d="M38.7779 4.68555L34.0202 15.7639H32.5522L34.3209 11.8887L31.1992 4.68555H32.7468L35.0018 10.2113H35.0283L37.2303 4.68555H38.7779Z" fill="white"/>
<path fill-rule="evenodd" clip-rule="evenodd" d="M12.7005 6.83897C12.7005 6.39942 12.6651 5.95987 12.5944 5.5293H6.58984V8.01408H10.0299C9.88837 8.81244 9.42852 9.53007 8.75643 9.97859V11.5933H10.8081C12.0107 10.472 12.7005 8.81244 12.7005 6.83897Z" fill="#4285F4"/>
<path fill-rule="evenodd" clip-rule="evenodd" d="M6.59049 13.1543C8.30608 13.1543 9.75637 12.5802 10.8087 11.5935L8.75709 9.97883C8.18228 10.3735 7.44829 10.5978 6.59049 10.5978C4.92797 10.5978 3.52189 9.45855 3.01783 7.93359H0.904297V9.60208C1.98317 11.7819 4.18514 13.1543 6.59049 13.1543Z" fill="#34A853"/>
<path fill-rule="evenodd" clip-rule="evenodd" d="M3.01738 7.93416C2.75208 7.1358 2.75208 6.26567 3.01738 5.45834V3.79883H0.903843C-0.00701013 5.61981 -0.00701013 7.77269 0.903843 9.59367L3.01738 7.93416Z" fill="#FBBC04"/>
<path fill-rule="evenodd" clip-rule="evenodd" d="M6.59049 2.79327C7.50135 2.77533 8.37683 3.12517 9.03122 3.76207L10.8529 1.91417C9.69447 0.819791 8.17343 0.218778 6.59049 0.236719C4.18514 0.236719 1.98317 1.61815 0.904297 3.79795L3.01783 5.46643C3.52189 3.9325 4.92797 2.79327 6.59049 2.79327Z" fill="#EA4335"/>
</svg>
