<svg width="32" height="32" viewBox="0 0 32 32" fill="none" xmlns="http://www.w3.org/2000/svg">
<g clip-path="url(#clip0_1173_80503)">
<path d="M16 32C24.8366 32 32 24.8366 32 16C32 7.16344 24.8366 0 16 0C7.16344 0 0 7.16344 0 16C0 24.8366 7.16344 32 16 32Z" fill="#7AA5DA"/>
<path d="M23.9826 8.34556C24.6204 8.09669 25.2798 8.65481 25.1398 9.32494L22.2791 22.9987C22.1455 23.6398 21.3924 23.9286 20.8644 23.5407L16.5461 20.3709L14.3449 22.6184C13.9581 23.0128 13.2911 22.8522 13.1252 22.3264L11.5371 17.2851L7.28007 16.0277C6.72088 15.8628 6.68857 15.0849 7.23051 14.8727L23.9826 8.34556ZM21.8826 11.3796C22.069 11.2147 21.8524 10.9239 21.6413 11.0553L12.4528 16.7539C12.2912 16.8541 12.2169 17.0512 12.2739 17.2333L13.527 22.7358C13.5518 22.8199 13.6724 22.808 13.6833 22.7207L13.9634 18.5274C13.9741 18.4239 14.0237 18.3291 14.1013 18.2602L21.8826 11.3796Z" fill="white"/>
<path d="M21.6412 11.0566C21.8524 10.9251 22.069 11.216 21.8826 11.3809L14.1013 18.2614C14.0238 18.3304 13.9742 18.4252 13.9634 18.5286L13.6833 22.722C13.6725 22.8093 13.5518 22.8211 13.527 22.7371L12.274 17.2346C12.2168 17.0525 12.2912 16.8553 12.4528 16.7551L21.6412 11.0566Z" fill="#9EC2E5"/>
<path d="M13.5723 22.7929C13.3698 22.7207 13.1984 22.5591 13.1252 22.3263L11.5371 17.2849L7.28007 16.0276C6.72088 15.8627 6.68857 15.0848 7.23051 14.8726L23.9825 8.3455C24.3941 8.18494 24.8154 8.36056 25.0233 8.686C24.9845 8.62675 24.9382 8.57181 24.8865 8.52331L13.5216 17.8011V18.2073L13.4591 18.1621L13.5216 20.7199V22.7714C13.5378 22.7789 13.555 22.7854 13.5723 22.7908V22.7929H13.5723Z" fill="white"/>
<path d="M14.2882 22.6719C14.2687 22.6882 14.2491 22.7034 14.2285 22.7175V22.7164C14.2492 22.7023 14.2687 22.6882 14.2882 22.6719Z" fill="#DADDE0"/>
<path d="M14.1006 22.7872C14.1451 22.7687 14.1874 22.7459 14.2287 22.7188C14.1874 22.7458 14.144 22.7686 14.1006 22.7872Z" fill="#DADDE0"/>
<path d="M13.749 22.8345C13.8438 22.8442 13.9397 22.8366 14.0335 22.8086C13.9656 22.8302 13.8955 22.8398 13.8255 22.8398C13.804 22.8398 13.7824 22.8388 13.762 22.8366C13.7576 22.8367 13.7533 22.8367 13.749 22.8345Z" fill="#DADDE0"/>
<path d="M13.8258 22.8353C13.804 22.8353 13.7823 22.8342 13.7617 22.832C13.7823 22.8342 13.804 22.8353 13.8258 22.8353Z" fill="white"/>
<path d="M13.749 22.8307C13.7533 22.8328 13.7576 22.8328 13.7619 22.8328C13.7393 22.8318 13.7188 22.8285 13.6973 22.8242C13.7145 22.8275 13.7317 22.8297 13.749 22.8307Z" fill="white"/>
<path d="M13.749 22.8311C13.7318 22.83 13.7145 22.8278 13.6973 22.8246C13.6898 22.8236 13.6823 22.8225 13.6758 22.8203C13.6995 22.8246 13.7242 22.8289 13.749 22.8311Z" fill="#DADDE0"/>
<path d="M13.5947 22.7969C13.6184 22.8044 13.6422 22.8109 13.6658 22.8174C13.6562 22.8152 13.6465 22.8131 13.6368 22.8109C13.6325 22.8099 13.6282 22.8088 13.6249 22.8066C13.6152 22.8044 13.6044 22.8012 13.5947 22.7969Z" fill="#DADDE0"/>
<path d="M13.6367 22.8125C13.6452 22.8144 13.6536 22.8163 13.6621 22.8181C13.6536 22.8172 13.6452 22.8153 13.6367 22.8125Z" fill="white"/>
<path d="M13.5946 22.7984C13.6044 22.8027 13.6153 22.806 13.625 22.8081C13.6087 22.8049 13.5925 22.7995 13.5762 22.793C13.5827 22.7951 13.5881 22.7973 13.5946 22.7984Z" fill="white"/>
<path d="M13.5933 22.797C13.5873 22.796 13.5822 22.794 13.5763 22.792C13.5753 22.793 13.5733 22.792 13.5723 22.791V22.7891C13.5792 22.793 13.5863 22.795 13.5933 22.797Z" fill="#DADDE0"/>
<path d="M13.5215 20.7188L13.5721 22.7896C13.5549 22.7842 13.5376 22.7777 13.5215 22.7702V20.7188Z" fill="#D1D1D1"/>
<path d="M13.5215 18.2054V20.718L13.459 18.1602L13.5215 18.2054Z" fill="#DADDE0"/>
<path d="M21.8826 11.3809L14.1013 18.2614C14.0238 18.3304 13.9742 18.4252 13.9634 18.5286L13.6838 22.7224C13.673 22.8096 13.5523 22.8215 13.5265 22.7374L12.274 17.2346C12.2168 17.0525 12.2912 16.8554 12.4528 16.7552L21.6413 11.0566C21.8525 10.9251 22.069 11.216 21.8826 11.3809Z" fill="#ADBCC9"/>
</g>
<defs>
<clipPath id="clip0_1173_80503">
<rect width="32" height="32" fill="white"/>
</clipPath>
</defs>
</svg>
